<?xml version="1.0" standalone="no"?><!DOCTYPE svg PUBLIC "-//W3C//DTD SVG 1.1//EN" "http://www.w3.org/Graphics/SVG/1.1/DTD/svg11.dtd"><svg t="1714658036315" class="icon" viewBox="0 0 1024 1024" version="1.1" xmlns="http://www.w3.org/2000/svg" p-id="11629" xmlns:xlink="http://www.w3.org/1999/xlink" width="200" height="200"><path d="M320 256a64 64 0 1 1 0 128 64 64 0 0 1 0-128z m384 0a64 64 0 1 1 0 128 64 64 0 0 1 0-128z m-192 32a32 32 0 1 1 0 64 32 32 0 0 1 0-64z m-192 352a64 64 0 1 1 0 128 64 64 0 0 1 0-128z m384 0a64 64 0 1 1 0 128 64 64 0 0 1 0-128z m-192 32a32 32 0 1 1 0 64 32 32 0 0 1 0-64z m192-192a32 32 0 1 1 0 64 32 32 0 0 1 0-64z m-384 0a32 32 0 1 1 0 64 32 32 0 0 1 0-64z m192-32a64 64 0 1 1 0 128 64 64 0 0 1 0-128z"  p-id="11630"></path></svg>
