<?xml version="1.0" standalone="no"?><!DOCTYPE svg PUBLIC "-//W3C//DTD SVG 1.1//EN" "http://www.w3.org/Graphics/SVG/1.1/DTD/svg11.dtd"><svg t="1714661117548" class="icon" viewBox="0 0 1024 1024" version="1.1" xmlns="http://www.w3.org/2000/svg" p-id="3342" xmlns:xlink="http://www.w3.org/1999/xlink" width="200" height="200"><path d="M529.066667 213.333333a341.333333 341.333333 0 1 1-341.333334 341.333334 341.333333 341.333333 0 0 1 341.333334-341.333334m0-85.333333a426.666667 426.666667 0 1 0 426.666666 426.666667 426.666667 426.666667 0 0 0-426.666666-426.666667z" fill="#666666" p-id="3343"></path><path d="M529.066667 298.666667a42.666667 42.666667 0 0 0-42.666667 42.666666v213.333334a42.666667 42.666667 0 0 0 85.333333 0V341.333333a42.666667 42.666667 0 0 0-42.666666-42.666666z" fill="#666666" p-id="3344"></path><path d="M742.4 512h-213.333333a42.666667 42.666667 0 1 0 0 85.333333h213.333333a42.666667 42.666667 0 0 0 0-85.333333z"  p-id="3345"></path></svg>
