<?xml version="1.0" standalone="no"?><!DOCTYPE svg PUBLIC "-//W3C//DTD SVG 1.1//EN" "http://www.w3.org/Graphics/SVG/1.1/DTD/svg11.dtd"><svg t="1714657956128" class="icon" viewBox="0 0 1024 1024" version="1.1" xmlns="http://www.w3.org/2000/svg" p-id="8500" xmlns:xlink="http://www.w3.org/1999/xlink" width="200" height="200"><path d="M768.032 800.96h-512a32 32 0 0 1-29.76-43.84l64-160a32 32 0 0 1 29.76-20.16h64a32 32 0 0 1 0 64h-42.24l-38.4 96h416l-38.4-96h-40.96a32 32 0 1 1 0-64h64a32 32 0 0 1 29.76 20.16l64 160a32 32 0 0 1-29.76 43.84z m-256-487.04l41.28 50.56a71.36 71.36 0 0 1 4.48 96 67.2 67.2 0 0 1-93.76 0 69.76 69.76 0 0 1 4.8-96l13.44-16.96 27.84-34.88 1.92 1.28zM510.112 224a18.88 18.88 0 0 0-14.4 6.4c-21.44 24.32-53.12 64-76.8 94.08-46.4 57.92-50.56 131.84 0 181.76a131.2 131.2 0 0 0 183.68 0 133.44 133.44 0 0 0 0-181.76c-24.96-32-57.28-70.4-78.4-94.08a18.88 18.88 0 0 0-12.16-5.44l-1.92-0.96z"  p-id="8501"></path></svg>
