<?xml version="1.0" standalone="no"?><!DOCTYPE svg PUBLIC "-//W3C//DTD SVG 1.1//EN" "http://www.w3.org/Graphics/SVG/1.1/DTD/svg11.dtd"><svg t="1714657847665" class="icon" viewBox="0 0 1024 1024" version="1.1" xmlns="http://www.w3.org/2000/svg" p-id="4775" xmlns:xlink="http://www.w3.org/1999/xlink" width="200" height="200"><path d="M544 616.576a64 64 0 1 1-64 0V288a32 32 0 0 1 64 0v328.576zM256 544H224a32 32 0 0 1 0-64h32a32 32 0 0 1 0 64z m32-128H224a32 32 0 1 1 0-64h64a32 32 0 1 1 0 64z m0-128H224a32 32 0 1 1 0-64h64a32 32 0 1 1 0 64zM224 672a32 32 0 0 1-32-32 26.56 26.56 0 0 1 2.56-12.16 36.8 36.8 0 0 1 6.72-10.56A32 32 0 1 1 224 672z m0 128a33.6 33.6 0 0 1-22.72-9.28 32 32 0 0 1-6.72-10.56A26.56 26.56 0 0 1 192 768a32 32 0 1 1 32 32z m576-256h-32a32 32 0 1 1 0-64h32a32 32 0 0 1 0 64z m0-128h-64a32 32 0 1 1 0-64h64a32 32 0 0 1 0 64z m0-128h-64a32 32 0 1 1 0-64h64a32 32 0 0 1 0 64z m0 384a32 32 0 1 1 22.72-9.28l-5.12 3.84a17.92 17.92 0 0 1-5.44 2.88 19.84 19.84 0 0 1-6.08 1.92L800 672z m0 128a33.6 33.6 0 0 1-22.72-9.28 36.8 36.8 0 0 1-6.72-10.56A26.56 26.56 0 0 1 768 768a32 32 0 1 1 61.44 12.16 36.8 36.8 0 0 1-6.72 10.56A33.6 33.6 0 0 1 800 800zM512 192a96 96 0 0 1 96 96v227.52a64 64 0 0 0 18.24 44.8 160 160 0 1 1-228.48 0 64 64 0 0 0 18.24-44.8V288a96 96 0 0 1 96-96z m0-64a160 160 0 0 0-160 160v227.52a224 224 0 1 0 320 0V288a160 160 0 0 0-160-160z"  p-id="4776"></path></svg>
