<?xml version="1.0" standalone="no"?><!DOCTYPE svg PUBLIC "-//W3C//DTD SVG 1.1//EN" "http://www.w3.org/Graphics/SVG/1.1/DTD/svg11.dtd"><svg t="1714657988975" class="icon" viewBox="0 0 1024 1024" version="1.1" xmlns="http://www.w3.org/2000/svg" p-id="9692" xmlns:xlink="http://www.w3.org/1999/xlink" width="200" height="200"><path d="M767.712 416.224v127.904A255.84 255.84 0 0 1 511.84 800a255.872 255.872 0 0 1-255.872-255.872v-127.904h-5.76A58.24 58.24 0 0 1 192 357.984V282.24C192 250.048 218.048 224 250.24 224h523.52C805.984 224 832 250.048 832 282.208v75.808a58.208 58.208 0 0 1-58.56 58.208h-5.728z m-63.968 0H319.936v127.904a191.904 191.904 0 0 0 383.808 0v-127.904z m-447.776-64h511.744V288.32H255.968v63.968z m255.872 319.84a95.936 95.936 0 1 1 0-191.904 95.936 95.936 0 0 1 0 191.904z m0-127.936a32 32 0 1 0 0 64 32 32 0 0 0 0-64z"  p-id="9693"></path></svg>
