<?xml version="1.0" standalone="no"?><!DOCTYPE svg PUBLIC "-//W3C//DTD SVG 1.1//EN" "http://www.w3.org/Graphics/SVG/1.1/DTD/svg11.dtd"><svg t="1714657984673" class="icon" viewBox="0 0 1024 1024" version="1.1" xmlns="http://www.w3.org/2000/svg" p-id="9543" xmlns:xlink="http://www.w3.org/1999/xlink" width="200" height="200"><path d="M512 800a32 32 0 0 1-32-32v-32a32 32 0 0 1 64 0v32a32 32 0 0 1-32 32z m-192-64a32 32 0 0 1-22.72-54.72l32-32a32 32 0 0 1 45.12 45.12l-32 32a32 32 0 0 1-22.4 9.6z m384 0a32 32 0 0 1-22.72-9.28l-32-32a32 32 0 1 1 45.12-45.12l32 32A32 32 0 0 1 704 736z m96-192h-32a32 32 0 0 1 0-64h32a32 32 0 0 1 0 64zM256 544H224a32 32 0 1 1 0-64h32a32 32 0 1 1 0 64z m288-256v64a64 64 0 0 0 25.28 50.88A96 96 0 0 1 512 576a118.08 118.08 0 0 1-56-15.04 62.08 62.08 0 0 1-24.96-25.28 98.88 98.88 0 0 1 23.68-131.84 64 64 0 0 0 25.6-51.2v-64h64L544 288z m32.32-63.36h-128a32 32 0 0 0-32 32v96a162.56 162.56 0 0 0-41.6 213.44 126.08 126.08 0 0 0 50.88 51.2A181.76 181.76 0 0 0 512 640a160 160 0 0 0 96-288V256a32 32 0 0 0-32-32l0.32 0.64z"  p-id="9544"></path></svg>
