<?xml version="1.0" standalone="no"?><!DOCTYPE svg PUBLIC "-//W3C//DTD SVG 1.1//EN" "http://www.w3.org/Graphics/SVG/1.1/DTD/svg11.dtd"><svg t="1714657960521" class="icon" viewBox="0 0 1024 1024" version="1.1" xmlns="http://www.w3.org/2000/svg" p-id="8649" xmlns:xlink="http://www.w3.org/1999/xlink" width="200" height="200"><path d="M512 128a192 192 0 0 0-192 192v384a192 192 0 1 0 384 0V320a192 192 0 0 0-192-192z m128 288v32a32 32 0 0 0 0 64v32a32 32 0 0 0 0 64v96a128 128 0 1 1-256 0v-96a32 32 0 0 0 0-64v-32a32 32 0 0 0 0-64v-32a32 32 0 1 0 0-64v-32a128 128 0 1 1 256 0v32a32 32 0 1 0 0 64z m-160 232.576a64 64 0 1 0 64 0V320a32 32 0 1 0-64 0v328.576z"  p-id="8650"></path></svg>
