<?xml version="1.0" standalone="no"?><!DOCTYPE svg PUBLIC "-//W3C//DTD SVG 1.1//EN" "http://www.w3.org/Graphics/SVG/1.1/DTD/svg11.dtd"><svg t="1714657821502" class="icon" viewBox="0 0 1024 1024" version="1.1" xmlns="http://www.w3.org/2000/svg" p-id="3881" xmlns:xlink="http://www.w3.org/1999/xlink" width="200" height="200"><path d="M256 704a32 32 0 0 1-32-32V352a32 32 0 1 1 64 0v320a32 32 0 0 1-32 32z m512 0a32 32 0 0 1-32-32V352a32 32 0 0 1 64 0v320a32 32 0 0 1-32 32z m-384-96a32 32 0 0 1-32-32v-224a32 32 0 1 1 64 0v224a32 32 0 0 1-32 32z m256 0a32 32 0 0 1-32-32v-224a32 32 0 0 1 64 0v224a32 32 0 0 1-32 32z m-128-128a32 32 0 0 1-32-32v-96a32 32 0 1 1 64 0v96a32 32 0 0 1-32 32z m288 352H224a32 32 0 0 1 0-64h576a32 32 0 0 1 0 64z m0-576H224a32 32 0 1 1 0-64h576a32 32 0 0 1 0 64z"  p-id="3882"></path></svg>
