<?xml version="1.0" standalone="no"?><!DOCTYPE svg PUBLIC "-//W3C//DTD SVG 1.1//EN" "http://www.w3.org/Graphics/SVG/1.1/DTD/svg11.dtd"><svg t="1714657893913" class="icon" viewBox="0 0 1024 1024" version="1.1" xmlns="http://www.w3.org/2000/svg" p-id="6414" xmlns:xlink="http://www.w3.org/1999/xlink" width="200" height="200"><path d="M592.64 692.48a124.16 124.16 0 0 1 2.88-28.16 104 104 0 0 1 9.28-24.96 132.8 132.8 0 0 1 15.68-23.04 240.32 240.32 0 0 1 21.76-23.04l18.56-17.28a102.4 102.4 0 0 0 12.16-12.48c2.944-3.488 5.408-7.36 7.36-11.52a43.52 43.52 0 0 0 3.2-12.48c0.32-5.12 0.32-10.24 0-15.36a22.72 22.72 0 0 0-22.4-28.16 20.8 20.8 0 0 0-21.44 13.12 45.44 45.44 0 0 0-3.52 14.08v16.96H592v-7.68a65.92 65.92 0 0 1 16.96-48.64 72.96 72.96 0 0 1 53.44-16.96 71.68 71.68 0 0 1 51.2 16c11.712 12.256 17.728 28.864 16.64 45.76a101.76 101.76 0 0 1-1.92 20.16 76.16 76.16 0 0 1-6.08 17.92 84.48 84.48 0 0 1-10.88 16.96 157.12 157.12 0 0 1-16.32 16.64l-25.6 23.68a96 96 0 0 0-16 17.92 52.48 52.48 0 0 0-7.36 15.36h85.44v35.2H592h0.64z m-268.8-259.2a169.28 169.28 0 0 1 16.96-60.16 96 96 0 0 1 37.76-39.04 161.92 161.92 0 0 1 132.16 0 96 96 0 0 1 37.76 39.04 169.28 169.28 0 0 1 16.96 60.16 768 768 0 0 1 0 153.28 168.96 168.96 0 0 1-16.96 59.84 89.6 89.6 0 0 1-37.76 38.4 170.56 170.56 0 0 1-132.16 0 89.6 89.6 0 0 1-37.76-38.4 168.96 168.96 0 0 1-16.96-59.84 768 768 0 0 1 0-153.28z m71.68 139.2c0.64 14.24 3.008 28.288 7.04 41.92 2.56 9.28 7.904 17.6 15.36 23.68a50.56 50.56 0 0 0 52.8 0c7.424-6.08 12.8-14.4 15.36-23.68 4.032-13.632 6.4-27.68 7.04-41.92 1.28-17.28 1.92-38.592 1.92-64 0-25.376-0.64-46.72-1.92-64a178.24 178.24 0 0 0-7.04-41.92 46.72 46.72 0 0 0-15.36-23.68 50.56 50.56 0 0 0-52.8 0c-7.456 6.144-12.8 14.4-15.36 23.68a178.24 178.24 0 0 0-7.04 41.92c-1.28 17.088-1.92 38.4-1.92 64s0.64 46.944 1.92 64z"  p-id="6415"></path></svg>
