<?xml version="1.0" standalone="no"?><!DOCTYPE svg PUBLIC "-//W3C//DTD SVG 1.1//EN" "http://www.w3.org/Graphics/SVG/1.1/DTD/svg11.dtd"><svg t="1714658024783" class="icon" viewBox="0 0 1024 1024" version="1.1" xmlns="http://www.w3.org/2000/svg" p-id="11182" xmlns:xlink="http://www.w3.org/1999/xlink" width="200" height="200"><path d="M276.384 663.264a32.224 32.224 0 0 1-42.976-2.24 31.904 31.904 0 0 1-1.696-43.424l25.12-24.992A198.112 198.112 0 0 1 256.128 576v-128c0-123.712 115.104-224 257.056-224s257.056 100.288 257.056 224v128c0 6.784-0.32 13.472-1.024 20.096l21.6 21.504a31.904 31.904 0 0 1 6.72 34.72 32.128 32.128 0 0 1-48.768 13.44C709.056 744.8 618.528 800 513.184 800c-106.432 0-197.76-56.384-236.8-136.736z m429.6-130.144V448c0-88.352-86.336-160-192.8-160-106.464 0-192.8 71.648-192.8 160v81.28l72-71.68a32.224 32.224 0 0 1 45.312 0l73.6 73.28 73.568-73.28a32.224 32.224 0 0 1 45.28 0l75.84 75.52z m-6.464 84.096l-92.16-91.776-73.6 73.28a32.224 32.224 0 0 1-45.312 0l-73.6-73.28-88.96 88.64c20.576 69.984 96.64 121.92 187.296 121.92 89.28 0 164.416-50.4 186.336-118.784z"  p-id="11183"></path></svg>
