<?xml version="1.0" standalone="no"?><!DOCTYPE svg PUBLIC "-//W3C//DTD SVG 1.1//EN" "http://www.w3.org/Graphics/SVG/1.1/DTD/svg11.dtd"><svg t="1714657920671" class="icon" viewBox="0 0 1024 1024" version="1.1" xmlns="http://www.w3.org/2000/svg" p-id="7159" xmlns:xlink="http://www.w3.org/1999/xlink" width="200" height="200"><path d="M528.64 449.728l112.8-112.768a32 32 0 1 1 45.12 45.12l-111.488 111.488a64 64 0 1 1-46.4-43.84zM801.76 672h-192a32 32 0 0 1 0-64h192a32 32 0 1 1 0 64z m0 160h-64a32 32 0 0 1 0-64h64a32 32 0 1 1 0 64z m-192 0h-296.96a112.32 112.32 0 1 1 0-224h104.96a32 32 0 0 1 0 64h-104.96a48.32 48.32 0 1 0 0 96h296.96a32 32 0 0 1 0 64z m-253.76-521.6l9.92 9.92a32 32 0 0 1-22.4 54.4 32 32 0 0 1-22.72-9.28l-9.792-9.76A254.72 254.72 0 0 0 259.744 480h30.016a32 32 0 1 1 0 64h-64a32 32 0 0 1-32-32c0-176.736 143.264-320 320-320s320 143.264 320 320a32 32 0 0 1-32 32h-64a32 32 0 0 1 0-64h30.016a256.128 256.128 0 0 0-222.016-222.016V288a32 32 0 1 1-64 0v-30.016a254.752 254.752 0 0 0-125.76 52.416z"  p-id="7160"></path></svg>
