<?xml version="1.0" standalone="no"?><!DOCTYPE svg PUBLIC "-//W3C//DTD SVG 1.1//EN" "http://www.w3.org/Graphics/SVG/1.1/DTD/svg11.dtd"><svg t="1714657976793" class="icon" viewBox="0 0 1024 1024" version="1.1" xmlns="http://www.w3.org/2000/svg" p-id="9245" xmlns:xlink="http://www.w3.org/1999/xlink" width="200" height="200"><path d="M320 480.192a32 32 0 0 1-32-32v-114.88l-9.28 9.28a32 32 0 0 1-45.12-45.12l64-64a32 32 0 0 1 54.4 22.72v192a32 32 0 0 1-32 32zM512 480a32 32 0 0 1-32-32V256.192a32 32 0 1 1 64 0V448a32 32 0 0 1-32 32z m192 0.192a32 32 0 0 1-32-32v-192a32 32 0 0 1 54.72-22.72l64 64a32 32 0 0 1-45.12 45.12l-9.28-9.28v114.88a32 32 0 0 1-32.32 32z m96 160H224a32 32 0 1 1 0-64h576a32 32 0 0 1 0 64z m0 128H224a32 32 0 1 1 0-64h576a32 32 0 0 1 0 64z"  p-id="9246"></path></svg>
