<?xml version="1.0" standalone="no"?><!DOCTYPE svg PUBLIC "-//W3C//DTD SVG 1.1//EN" "http://www.w3.org/Graphics/SVG/1.1/DTD/svg11.dtd"><svg t="1714658018568" class="icon" viewBox="0 0 1024 1024" version="1.1" xmlns="http://www.w3.org/2000/svg" p-id="10884" xmlns:xlink="http://www.w3.org/1999/xlink" width="200" height="200"><path d="M241.28 338.56v139.84h86.08v-139.84h73.6V704h-73.6v-162.24H241.28V704h-73.6V338.56h73.6zM432.64 704a124.16 124.16 0 0 1 2.88-28.16 104 104 0 0 1 9.28-24.96 133.76 133.76 0 0 1 15.68-23.04 238.72 238.72 0 0 1 22.08-23.04l18.56-17.28c4.48-3.808 8.672-8 12.48-12.48 2.944-3.52 5.44-7.36 7.36-11.52a43.52 43.52 0 0 0 3.2-12.48c0.32-5.12 0.32-10.24 0-15.36a22.72 22.72 0 0 0-22.4-28.16 20.8 20.8 0 0 0-21.44 13.12 45.44 45.44 0 0 0-3.52 14.08v16.96h-44.16V544a65.92 65.92 0 0 1 16.96-48.64 72.96 72.96 0 0 1 53.44-16.96 71.68 71.68 0 0 1 51.2 16c11.712 12.256 17.76 28.864 16.64 45.76a101.76 101.76 0 0 1-1.92 20.16 77.12 77.12 0 0 1-6.08 17.92 84.48 84.48 0 0 1-10.88 16.96 160 160 0 0 1-16.32 16.64l-25.6 23.68a96 96 0 0 0-16 17.92 52.48 52.48 0 0 0-7.36 15.36h85.44V704h-139.52z m232.64-103.36c-0.128 7.84 0.512 15.68 1.92 23.36 1.12 6.4 3.744 12.448 7.68 17.6 4 4.928 9.152 8.8 15.04 11.2 7.52 2.976 15.584 4.384 23.68 4.16a47.04 47.04 0 0 0 32-10.88 41.28 41.28 0 0 0 13.44-33.92 61.44 61.44 0 0 0-3.2-21.12 42.24 42.24 0 0 0-10.88-16 78.4 78.4 0 0 0-20.16-13.12 290.56 290.56 0 0 0-32-12.16 265.28 265.28 0 0 1-42.56-17.92 114.56 114.56 0 0 1-30.08-22.72 81.28 81.28 0 0 1-17.6-30.08 128 128 0 0 1-5.76-39.68 102.08 102.08 0 0 1 30.08-80.96 120.96 120.96 0 0 1 82.88-26.56 180.48 180.48 0 0 1 45.44 5.44 96 96 0 0 1 35.84 17.28c10.4 8.544 18.56 19.52 23.68 32 5.92 14.176 8.768 29.44 8.32 44.8v10.24h-70.72a73.6 73.6 0 0 0-9.28-40.32 33.92 33.92 0 0 0-32-14.08 51.2 51.2 0 0 0-20.48 3.52 34.56 34.56 0 0 0-13.12 9.6 32 32 0 0 0-6.72 13.44 69.12 69.12 0 0 0-1.92 16c-0.384 9.952 2.048 19.84 7.04 28.48a64 64 0 0 0 32 21.12l56.96 24.64c12.096 5.12 23.584 11.52 34.24 19.2 8.16 5.952 15.296 13.216 21.12 21.44 5.216 7.648 8.928 16.224 10.88 25.28 2.272 10.496 3.36 21.248 3.2 32 3.2 31.52-8.64 62.72-32 84.16a147.84 147.84 0 0 1-93.44 26.24 122.56 122.56 0 0 1-89.28-27.2 105.92 105.92 0 0 1-26.88-77.76v-14.72h73.6v10.88l-0.96-2.88z"  p-id="10885"></path></svg>
