<?xml version="1.0" standalone="no"?><!DOCTYPE svg PUBLIC "-//W3C//DTD SVG 1.1//EN" "http://www.w3.org/Graphics/SVG/1.1/DTD/svg11.dtd"><svg t="1714658001072" class="icon" viewBox="0 0 1024 1024" version="1.1" xmlns="http://www.w3.org/2000/svg" p-id="10139" xmlns:xlink="http://www.w3.org/1999/xlink" width="200" height="200"><path d="M224 640.448V288a64 64 0 0 1 64-64h448a64 64 0 0 1 64 64v448a64 64 0 0 1-64 64H288a64 64 0 0 1-64-64v-95.552zM736 608V288H288v290.464l27.968-19.648a32 32 0 0 1 37.44 0.512l81.536 60.448 48.864-90.912a32 32 0 0 1 54.816-2.624L593.12 608H736z m0 64h-160a32 32 0 0 1-26.624-14.24l-34.432-51.648-41.152 76.544a32 32 0 0 1-47.264 10.56l-92.704-68.736L288 656.64V736h448v-64zM384 352a32 32 0 0 1 32 32v96a32 32 0 1 1-64 0v-96a32 32 0 0 1 32-32z m128 0a32 32 0 0 1 32 32v64a32 32 0 1 1-64 0v-64a32 32 0 0 1 32-32z m128 0a32 32 0 0 1 32 32v123.52a32 32 0 0 1-64 0V384a32 32 0 0 1 32-32z"  p-id="10140"></path></svg>
