<?xml version="1.0" standalone="no"?><!DOCTYPE svg PUBLIC "-//W3C//DTD SVG 1.1//EN" "http://www.w3.org/Graphics/SVG/1.1/DTD/svg11.dtd"><svg t="1714657768510" class="icon" viewBox="0 0 1024 1024" version="1.1" xmlns="http://www.w3.org/2000/svg" p-id="3150" xmlns:xlink="http://www.w3.org/1999/xlink" width="200" height="200"><path d="M704 364.8l-192 192 44.8 44.8c12.8 12.8 12.8 32 0 44.8l-112 112c-22.4 22.4-57.6 38.4-89.6 38.4-51.2 0-99.2-32-118.4-80s-12.8-99.2 25.6-137.6l112-112c12.8-12.8 32-12.8 44.8 0l44.8 44.8 192-192-41.6-41.6a34.24 34.24 0 0 1 48-48l128 128c9.6 12.8 12.8 25.6 6.4 38.4-3.2 9.6-16 19.2-28.8 19.2-9.6 0-16-3.2-22.4-9.6L704 364.8z m-307.2 169.6l-89.6 89.6c-12.8 12.8-19.2 28.8-19.2 48 0 16 6.4 32 19.2 44.8 25.6 22.4 64 22.4 89.6 0l89.6-89.6-89.6-92.8zM768 672h-96c-19.2 0-32-12.8-32-32s12.8-32 32-32h96c19.2 0 32 12.8 32 32s-12.8 32-32 32z m0-128h-32c-19.2 0-32-12.8-32-32s12.8-32 32-32h32c19.2 0 32 12.8 32 32s-12.8 32-32 32z m-256-256H256c-19.2 0-32-16-32-32s12.8-32 32-32h256c19.2 0 32 12.8 32 32s-12.8 32-32 32z m-160 128H256c-19.2 0-32-16-32-32s12.8-32 32-32h96c19.2 0 32 12.8 32 32s-12.8 32-32 32z m416 384h-192c-19.2 0-32-12.8-32-32s12.8-32 32-32h192c19.2 0 32 12.8 32 32 0 16-12.8 32-32 32z"  p-id="3151"></path></svg>
