<?xml version="1.0" standalone="no"?><!DOCTYPE svg PUBLIC "-//W3C//DTD SVG 1.1//EN" "http://www.w3.org/Graphics/SVG/1.1/DTD/svg11.dtd"><svg t="1714657901062" class="icon" viewBox="0 0 1024 1024" version="1.1" xmlns="http://www.w3.org/2000/svg" p-id="6712" xmlns:xlink="http://www.w3.org/1999/xlink" width="200" height="200"><path d="M334.08 570.24V320h67.52v365.44H317.76l-90.24-256v256H160V320h84.48l89.6 250.24zM527.68 320v139.84h86.08V320h73.6v365.44h-73.6v-162.24h-86.08v162.24h-73.6V320h73.6z m241.28 329.6a19.84 19.84 0 0 0 20.16 10.56 26.24 26.24 0 0 0 13.44-2.88 20.16 20.16 0 0 0 7.68-7.68 32 32 0 0 0 3.52-11.84 119.68 119.68 0 0 0 0-14.08 90.24 90.24 0 0 0 0-14.72 35.52 35.52 0 0 0-4.16-12.16 23.36 23.36 0 0 0-8.96-8.64 32 32 0 0 0-15.36-3.2h-15.36v-30.08h15.04a23.04 23.04 0 0 0 20.16-11.2 37.12 37.12 0 0 0 4.48-11.2 61.44 61.44 0 0 0 0-13.44 37.44 37.44 0 0 0-5.44-23.04 20.16 20.16 0 0 0-16.64-6.72 23.68 23.68 0 0 0-11.84 2.56 18.56 18.56 0 0 0-7.36 7.68 34.24 34.24 0 0 0-3.2 11.52 125.76 125.76 0 0 0 0 14.72h-42.24a67.2 67.2 0 0 1 16.96-50.24 68.48 68.48 0 0 1 49.6-16.64 73.92 73.92 0 0 1 48 14.08c12.288 11.232 18.688 27.552 17.28 44.16a56.64 56.64 0 0 1-9.28 32 40.32 40.32 0 0 1-25.28 16.32c12.8 0.896 24.544 7.456 32 17.92a64 64 0 0 1 9.28 35.84 102.4 102.4 0 0 1-2.88 23.68 52.8 52.8 0 0 1-11.2 22.08 58.56 58.56 0 0 1-23.04 16 100.8 100.8 0 0 1-38.08 6.08 64 64 0 0 1-49.28-17.92 72.96 72.96 0 0 1-16.32-50.88h44.16a75.2 75.2 0 0 0 4.16 31.36z"  p-id="6713"></path></svg>
