<?xml version="1.0" standalone="no"?><!DOCTYPE svg PUBLIC "-//W3C//DTD SVG 1.1//EN" "http://www.w3.org/Graphics/SVG/1.1/DTD/svg11.dtd"><svg t="1714661692334" class="icon" viewBox="0 0 1024 1024" version="1.1" xmlns="http://www.w3.org/2000/svg" p-id="3335" xmlns:xlink="http://www.w3.org/1999/xlink" width="200" height="200"><path d="M768 288c19.2 0 32-12.8 32-32s-12.8-32-32-32H256c-19.2 0-32 12.8-32 32s12.8 32 32 32h512z m0 128c19.2 0 32-12.8 32-32s-12.8-32-32-32h-64c-19.2 0-32 12.8-32 32s12.8 32 32 32h64z m-224 0c19.2 0 32-12.8 32-32s-12.8-32-32-32h-64c-19.2 0-32 12.8-32 32s12.8 32 32 32h64z m-224 0c19.2 0 32-12.8 32-32s-12.8-32-32-32H256c-19.2 0-32 12.8-32 32s12.8 32 32 32h64z m-64 128c19.2 0 32-12.8 32-32s-12.8-32-32-32-32 12.8-32 32 12.8 32 32 32z m128 0c19.2 0 32-12.8 32-32s-12.8-32-32-32-32 12.8-32 32 12.8 32 32 32z m128 0c19.2 0 32-12.8 32-32s-12.8-32-32-32-32 12.8-32 32 12.8 32 32 32z m128 0c19.2 0 32-12.8 32-32s-12.8-32-32-32-32 12.8-32 32 12.8 32 32 32z m128 0c19.2 0 32-12.8 32-32s-12.8-32-32-32-32 12.8-32 32 12.8 32 32 32z m-384 96c19.2 0 32-12.8 32-32s-12.8-32-32-32-32 12.8-32 32 12.8 32 32 32z m256 0c19.2 0 32-12.8 32-32s-12.8-32-32-32-32 12.8-32 32 12.8 32 32 32z m-278.4 150.4c12.8 12.8 32 12.8 44.8 0l105.6-105.6 105.6 105.6c12.8 12.8 32 12.8 44.8 0l128-128c12.8-12.8 12.8-32 0-44.8-12.8-12.8-32-12.8-44.8 0L640 723.2l-105.6-105.6c-12.8-12.8-32-12.8-44.8 0L384 723.2l-105.6-105.6c-12.8-12.8-32-12.8-44.8 0s-12.8 32 0 44.8l128 128z"  p-id="3336"></path></svg>
