<?xml version="1.0" standalone="no"?><!DOCTYPE svg PUBLIC "-//W3C//DTD SVG 1.1//EN" "http://www.w3.org/Graphics/SVG/1.1/DTD/svg11.dtd"><svg t="1714657997075" class="icon" viewBox="0 0 1024 1024" version="1.1" xmlns="http://www.w3.org/2000/svg" p-id="9990" xmlns:xlink="http://www.w3.org/1999/xlink" width="200" height="200"><path d="M470.048 543.904h-118.08a32 32 0 0 1-24-53.12l224-256a32 32 0 0 1 55.04 28.8l-54.08 216.32h119.04a32 32 0 0 1 24 53.12l-224 256a32 32 0 0 1-24 10.88 32 32 0 0 1-32-39.68l54.08-216.32z m-47.68-64h64l25.92-103.04-89.92 103.04z m114.56 64l-25.92 103.04 90.24-103.04h-64.32z"  p-id="9991"></path></svg>
