<?xml version="1.0" standalone="no"?><!DOCTYPE svg PUBLIC "-//W3C//DTD SVG 1.1//EN" "http://www.w3.org/Graphics/SVG/1.1/DTD/svg11.dtd"><svg t="1714657851588" class="icon" viewBox="0 0 1024 1024" version="1.1" xmlns="http://www.w3.org/2000/svg" p-id="4924" xmlns:xlink="http://www.w3.org/1999/xlink" width="200" height="200"><path d="M668.8 544a160.192 160.192 0 0 1-124.8 124.8V768a32 32 0 0 1-64 0v-99.2a160.192 160.192 0 0 1-124.8-124.8H256a32 32 0 1 1 0-64h99.2c4.8-23.648 14.816-45.408 28.8-64H256a32 32 0 1 1 0-64h512a32 32 0 0 1 0 64h-128c13.984 18.592 24 40.352 28.8 64H768a32 32 0 0 1 0 64h-99.2zM512 416a96 96 0 1 0 0 192 96 96 0 0 0 0-192z m256-128H256a32 32 0 1 1 0-64h512a32 32 0 0 1 0 64zM288 768a32 32 0 0 1-22.72-54.72l32-32a32 32 0 0 1 45.12 45.12l-32 32a32 32 0 0 1-22.4 9.6z m448 0a32 32 0 0 1-22.72-9.28l-32-32a32 32 0 0 1 45.12-45.12l32 32A32 32 0 0 1 736 768z"  p-id="4925"></path></svg>
