<?xml version="1.0" standalone="no"?><!DOCTYPE svg PUBLIC "-//W3C//DTD SVG 1.1//EN" "http://www.w3.org/Graphics/SVG/1.1/DTD/svg11.dtd"><svg t="1714658004576" class="icon" viewBox="0 0 1024 1024" version="1.1" xmlns="http://www.w3.org/2000/svg" p-id="10288" xmlns:xlink="http://www.w3.org/1999/xlink" width="200" height="200"><path d="M800 640v64a96 96 0 0 1-96 96H320a96 96 0 0 1-96-96V320a96 96 0 0 1 96-96h384a96 96 0 0 1 96 96v320z m-64-32v-192H288v192h448z m-352-64a32 32 0 0 1-12.16-2.56 36.8 36.8 0 0 1-10.56-6.72A32 32 0 0 1 352 512a49.28 49.28 0 0 1 0-6.4 20.8 20.8 0 0 1 1.92-5.76 23.68 23.68 0 0 1 2.88-5.76 51.52 51.52 0 0 1 3.84-4.8 32 32 0 0 1 10.56-6.72 32 32 0 0 1 18.56-1.92l5.76 1.92c1.984 0.64 3.84 1.6 5.44 2.88l5.12 3.84 3.84 4.8a24.96 24.96 0 0 1 2.88 5.76 19.84 19.84 0 0 1 1.92 5.76 44.48 44.48 0 0 1 0 6.4 32 32 0 0 1-30.72 32z m128 0a32 32 0 0 1-32-32 49.28 49.28 0 0 1 0-6.4 20.8 20.8 0 0 1 1.92-5.76 23.68 23.68 0 0 1 2.88-5.76l3.84-4.8 4.8-3.84a23.68 23.68 0 0 1 5.76-2.88 20.8 20.8 0 0 1 5.76-1.92 32 32 0 0 1 29.12 8.64 32 32 0 0 1 9.28 22.72 32 32 0 0 1-31.36 32z m128 0a32 32 0 0 1-12.16-2.56 36.8 36.8 0 0 1-10.56-6.72 37.12 37.12 0 0 1-6.72-10.56A26.56 26.56 0 0 1 608 512a49.28 49.28 0 0 1 0-6.4 20.8 20.8 0 0 1 1.92-5.76 23.68 23.68 0 0 1 2.88-5.76 51.52 51.52 0 0 1 3.84-4.8 32 32 0 0 1 10.56-6.72 29.76 29.76 0 0 1 18.24-1.92c2.112 0.32 4.16 0.96 6.08 1.92 1.984 0.64 3.84 1.6 5.44 2.88l5.12 3.84a32 32 0 0 1 9.28 22.72 32 32 0 0 1-9.28 22.72 37.12 37.12 0 0 1-10.56 6.72A32 32 0 0 1 640 544zM288 672v32a32 32 0 0 0 32 32h384a32 32 0 0 0 32-32v-32H288z m0-320h448v-32a32 32 0 0 0-32-32H320a32 32 0 0 0-32 32v32z"  p-id="10289"></path></svg>
