<?xml version="1.0" standalone="no"?><!DOCTYPE svg PUBLIC "-//W3C//DTD SVG 1.1//EN" "http://www.w3.org/Graphics/SVG/1.1/DTD/svg11.dtd"><svg t="1714657884428" class="icon" viewBox="0 0 1024 1024" version="1.1" xmlns="http://www.w3.org/2000/svg" p-id="6116" xmlns:xlink="http://www.w3.org/1999/xlink" width="200" height="200"><path d="M288 736v-287.904A224.192 224.192 0 0 1 512 224c123.84 0 224 100.128 224 224.096V736h32.224c17.536 0 31.776 14.208 31.776 32 0 17.664-14.24 32-31.776 32H255.776A31.808 31.808 0 0 1 224 768c0-17.664 14.24-32 31.776-32H288z m384-287.904A159.84 159.84 0 0 0 512 288c-88.224 0-160 71.744-160 160.096V736h320v-287.904z m-156.608 174.208L483.2 558.08l-37.536 93.824a32 32 0 0 1-59.392-23.744l64-160c10.24-25.664 45.984-27.136 58.304-2.432L540.8 529.92l37.536-93.824a32 32 0 0 1 59.392 23.744l-64 160c-10.24 25.664-45.984 27.136-58.304 2.432z"  p-id="6117"></path></svg>
