<?xml version="1.0" standalone="no"?><!DOCTYPE svg PUBLIC "-//W3C//DTD SVG 1.1//EN" "http://www.w3.org/Graphics/SVG/1.1/DTD/svg11.dtd"><svg t="1714657862362" class="icon" viewBox="0 0 1024 1024" version="1.1" xmlns="http://www.w3.org/2000/svg" p-id="5222" xmlns:xlink="http://www.w3.org/1999/xlink" width="200" height="200"><path d="M640 736v-192a128 128 0 1 0-256 0v192h32a32 32 0 0 1 0 64H256a32 32 0 0 1 0-64h64v-192a192 192 0 1 1 384 0v192h64a32 32 0 0 1 0 64h-160a32 32 0 0 1 0-64h32z m-128-96a32 32 0 0 1-32-32v-96a32 32 0 1 1 64 0v96a32 32 0 0 1-32 32z m0 96a32 32 0 0 1-12.16-2.56 28.8 28.8 0 0 1-17.28-17.28A26.88 26.88 0 0 1 480 704a32 32 0 0 1 61.44-12.16A32 32 0 0 1 512 736z m-192-352a32 32 0 0 1-22.72-9.28l-32-32A32 32 0 0 1 310.4 297.6l32 32A32 32 0 0 1 320 384z m192-64a32 32 0 0 1-32-32V256a32 32 0 1 1 64 0v32a32 32 0 0 1-32 32z m192 64a32 32 0 0 1-22.72-54.72l32-32a32 32 0 0 1 45.12 45.12l-32 32a32 32 0 0 1-22.4 9.6z"  p-id="5223"></path></svg>
