<?xml version="1.0" standalone="no"?><!DOCTYPE svg PUBLIC "-//W3C//DTD SVG 1.1//EN" "http://www.w3.org/Graphics/SVG/1.1/DTD/svg11.dtd"><svg t="1714657880653" class="icon" viewBox="0 0 1024 1024" version="1.1" xmlns="http://www.w3.org/2000/svg" p-id="5967" xmlns:xlink="http://www.w3.org/1999/xlink" width="200" height="200"><path d="M288 415.904V768a32 32 0 0 1-64 0V352l0.032-1.568L224 348.16V291.84C224 254.4 254.4 224 291.84 224h88.32C417.6 224 448 254.4 448 291.84V352a64 64 0 0 1-64 64H291.84L288 415.904zM608 384h-64a32 32 0 1 1 0-64h64a32 32 0 0 1 0 64z m192 0h-64a32 32 0 0 1 0-64h64a32 32 0 0 1 0 64z m-32 160a32 32 0 0 1-14.4-3.52l-64-32a32 32 0 1 1 28.48-57.28l64 32A32 32 0 0 1 768 544z m-352 64a32 32 0 0 1-32-32v-64a32 32 0 1 1 64 0v64a32 32 0 0 1-32 32z m0 192a32 32 0 0 1-32-32v-64a32 32 0 0 1 64 0v64a32 32 0 0 1-32 32z m160-32a32 32 0 0 1-28.8-17.6l-32-64a32 32 0 0 1 57.28-28.48l32 64A32 32 0 0 1 576 768z m0-224a32 32 0 0 1-22.72-9.28l-32-32a32 32 0 0 1 45.12-45.12l32 32A32 32 0 0 1 576 544z m128 128a32 32 0 0 1-22.72-9.28l-32-32a32 32 0 0 1 45.12-45.12l32 32A32 32 0 0 1 704 672zM291.84 288a3.84 3.84 0 0 0-3.84 3.84v56.32c0 2.112 1.728 3.84 3.84 3.84H384V291.84a3.84 3.84 0 0 0-3.84-3.84H291.84z"  p-id="5968"></path></svg>
