<?xml version="1.0" standalone="no"?><!DOCTYPE svg PUBLIC "-//W3C//DTD SVG 1.1//EN" "http://www.w3.org/Graphics/SVG/1.1/DTD/svg11.dtd"><svg t="1714657952901" class="icon" viewBox="0 0 1024 1024" version="1.1" xmlns="http://www.w3.org/2000/svg" p-id="8351" xmlns:xlink="http://www.w3.org/1999/xlink" width="200" height="200"><path d="M288 832a32 32 0 0 1-32-32v-32a32 32 0 0 1 64 0v32a32 32 0 0 1-32 32z m96 0a32 32 0 0 1-32-32v-32a32 32 0 0 1 64 0v32a32 32 0 0 1-32 32z m224-576v64h192a32 32 0 0 1 32 32v192a32 32 0 0 1-32 32H480v64a32 32 0 0 1-32 32H224a32 32 0 0 1-32-32v-225.92A94.08 94.08 0 0 1 286.08 320H544V256h-192a32 32 0 1 1 0-64h448a32 32 0 0 1 0 64h-192zM256 608h160v-64a32 32 0 0 1 32-32h320v-128H286.08a30.08 30.08 0 0 0-30.08 30.08V608z"  p-id="8352"></path></svg>
