<?xml version="1.0" standalone="no"?><!DOCTYPE svg PUBLIC "-//W3C//DTD SVG 1.1//EN" "http://www.w3.org/Graphics/SVG/1.1/DTD/svg11.dtd"><svg t="1714657971693" class="icon" viewBox="0 0 1024 1024" version="1.1" xmlns="http://www.w3.org/2000/svg" p-id="9096" xmlns:xlink="http://www.w3.org/1999/xlink" width="200" height="200"><path d="M314.24 391.808a35.52 35.52 0 0 0-34.56-18.24 34.56 34.56 0 0 0-22.72 7.36 49.28 49.28 0 0 0-14.08 24 204.16 204.16 0 0 0-7.04 43.52c-1.28 17.92-1.92 39.904-1.92 65.92a640 640 0 0 0 2.88 67.2c1.056 13.568 3.968 26.912 8.64 39.68 2.624 7.808 7.808 14.464 14.72 18.88 6.4 3.36 13.568 4.992 20.8 4.8 6.208 0.128 12.416-0.96 18.24-3.2a32 32 0 0 0 14.72-13.44 87.04 87.04 0 0 0 9.6-28.16 257.92 257.92 0 0 0 3.52-48h73.6a327.68 327.68 0 0 1-4.48 56.32 128 128 0 0 1-17.28 46.72 85.44 85.44 0 0 1-35.2 32 133.76 133.76 0 0 1-59.2 11.2 139.2 139.2 0 0 1-65.92-13.44 89.92 89.92 0 0 1-37.76-38.4 168.96 168.96 0 0 1-16.96-59.84 768 768 0 0 1 0-153.28 169.28 169.28 0 0 1 16.96-60.16 96 96 0 0 1 37.76-39.04 132.8 132.8 0 0 1 65.92-14.08 128 128 0 0 1 62.08 12.8c14.016 7.392 25.728 18.464 33.92 32 7.488 13.12 12.256 27.584 14.08 42.56 1.824 14.24 2.784 28.544 2.88 42.88h-73.6a132.8 132.8 0 0 0-9.6-58.56z m201.92-65.28v139.84h86.08v-139.84h73.6v365.44h-73.6v-162.24h-86.08v162.24h-73.6v-365.44h73.6z m264.96 138.88h47.68v143.68h21.76v35.84h-21.76v47.04h-42.24v-47.04h-80.64v-37.76l75.2-141.76z m4.8 57.6l-44.16 86.08h44.8v-86.08h-0.64z"  p-id="9097"></path></svg>
