<?xml version="1.0" standalone="no"?><!DOCTYPE svg PUBLIC "-//W3C//DTD SVG 1.1//EN" "http://www.w3.org/Graphics/SVG/1.1/DTD/svg11.dtd"><svg t="1714658012414" class="icon" viewBox="0 0 1024 1024" version="1.1" xmlns="http://www.w3.org/2000/svg" p-id="10586" xmlns:xlink="http://www.w3.org/1999/xlink" width="200" height="200"><path d="M320 512H224a32 32 0 0 1-32-32v-128a32 32 0 0 1 32-32h96V288a64 64 0 0 1 64-64h384a64 64 0 0 1 64 64v256a64 64 0 0 1-64 64h-160v64h192a32 32 0 0 1 32 32v64a32 32 0 0 1-64 0v-32h-192a32 32 0 0 1-32-32v-96h-160a64 64 0 0 1-64-64v-32z m64-32v64h384V288H384v192z m-128-32h64v-64H256v64z m280.64 64a96 96 0 1 1 0-192 96 96 0 0 1 0 192z m0-128a32 32 0 1 0 0 64 32 32 0 0 0 0-64z"  p-id="10587"></path></svg>
