<?xml version="1.0" standalone="no"?><!DOCTYPE svg PUBLIC "-//W3C//DTD SVG 1.1//EN" "http://www.w3.org/Graphics/SVG/1.1/DTD/svg11.dtd"><svg t="1714657838931" class="icon" viewBox="0 0 1024 1024" version="1.1" xmlns="http://www.w3.org/2000/svg" p-id="4477" xmlns:xlink="http://www.w3.org/1999/xlink" width="200" height="200"><path d="M697.6 588.8l96 128A32 32 0 0 1 768 768H256c-25.6 0-41.6-28.8-25.6-51.2l96-128c6.4-9.6 16-12.8 25.6-12.8h32c19.2 0 32 12.8 32 32s-12.8 32-32 32h-16L320 704h384l-48-64H640c-19.2 0-32-12.8-32-32s12.8-32 32-32h32c9.6 0 19.2 3.2 25.6 12.8zM480 512h-96c-70.4 0-128-57.6-128-128V288c0-19.2 12.8-32 32-32h128c38.4 0 73.6 16 96 44.8 22.4-28.8 57.6-44.8 96-44.8h128c19.2 0 32 12.8 32 32v96c0 70.4-57.6 128-128 128h-96v96c0 19.2-12.8 32-32 32s-32-12.8-32-32v-96z m224-192h-96c-35.2 0-64 28.8-64 64v64h96c35.2 0 64-28.8 64-64v-64z m-384 0v64c0 35.2 28.8 64 64 64h96v-64c0-35.2-28.8-64-64-64h-96z"  p-id="4478"></path></svg>
