<?xml version="1.0" standalone="no"?><!DOCTYPE svg PUBLIC "-//W3C//DTD SVG 1.1//EN" "http://www.w3.org/Graphics/SVG/1.1/DTD/svg11.dtd"><svg t="1714657904375" class="icon" viewBox="0 0 1024 1024" version="1.1" xmlns="http://www.w3.org/2000/svg" p-id="6861" xmlns:xlink="http://www.w3.org/1999/xlink" width="200" height="200"><path d="M480 288H256a32 32 0 1 1 0-64h512a32 32 0 0 1 32 32v480a64 64 0 0 1-64 64h-192a64 64 0 0 1-64-64V288z m64 0v448h192V288h-192z m-160 384a32 32 0 0 1-32-32v-256a32 32 0 1 1 64 0v256a32 32 0 0 1-32 32z m0 128a32 32 0 0 1-32-32v-32a32 32 0 0 1 64 0v32a32 32 0 0 1-32 32z m-128-128a32 32 0 0 1-32-32v-256a32 32 0 1 1 64 0v256a32 32 0 0 1-32 32z m0 128a32 32 0 0 1-32-32v-32a32 32 0 0 1 64 0v32a32 32 0 0 1-32 32z m384-320a32 32 0 0 1-32-32v-64a32 32 0 0 1 64 0v64a32 32 0 0 1-32 32z m0 192a32 32 0 0 1-32-32v-64a32 32 0 0 1 64 0v64a32 32 0 0 1-32 32z"  p-id="6862"></path></svg>
