<?xml version="1.0" standalone="no"?><!DOCTYPE svg PUBLIC "-//W3C//DTD SVG 1.1//EN" "http://www.w3.org/Graphics/SVG/1.1/DTD/svg11.dtd"><svg t="1714657824748" class="icon" viewBox="0 0 1024 1024" version="1.1" xmlns="http://www.w3.org/2000/svg" p-id="4030" xmlns:xlink="http://www.w3.org/1999/xlink" width="200" height="200"><path d="M416 615.936v-4.352a32 32 0 0 1 0-7.136V321.6c-36.672 51.936-76.512 113.504-101.856 172.064l101.888 122.24z m0 99.712l-124.928-149.92a177.792 177.792 0 0 0-3.04 31.712 168.704 168.704 0 0 0 128 167.456v-49.248z m212.544-270.08a32 32 0 0 1-8.352 26.432L480 620.608V800a32 32 0 0 1-35.008 31.872 233.28 233.28 0 0 1-220.992-236.032c0-129.6 128-298.24 196.8-388.8l0.256-0.32a32 32 0 0 1 54.336 0.736 1550.72 1550.72 0 0 1 149.888 227.104 32 32 0 0 1 3.2 11.04z m-70.656-0.896a1305.92 1305.92 0 0 0-77.856-124.032v206.592l77.856-82.56z m114.144 155.648l41.28 50.56v1.6a71.36 71.36 0 0 1 4.48 96 67.2 67.2 0 0 1-93.76 0 69.76 69.76 0 0 1 4.8-96l13.44-16.96 27.84-34.88 1.92-0.32zM670.08 512a18.88 18.88 0 0 0-14.4 6.4c-21.44 24.32-53.12 64-76.8 94.08-46.4 57.92-50.56 131.84 0 182.08a131.2 131.2 0 0 0 183.68 0 133.44 133.44 0 0 0 0-182.08c-24.96-32-57.28-70.4-78.4-94.08A18.88 18.88 0 0 0 672 512h-1.92z"  p-id="4031"></path></svg>
