<?xml version="1.0" standalone="no"?><!DOCTYPE svg PUBLIC "-//W3C//DTD SVG 1.1//EN" "http://www.w3.org/Graphics/SVG/1.1/DTD/svg11.dtd"><svg t="1714657948311" class="icon" viewBox="0 0 1024 1024" version="1.1" xmlns="http://www.w3.org/2000/svg" p-id="8202" xmlns:xlink="http://www.w3.org/1999/xlink" width="200" height="200"><path d="M578.272 667.84H221.76c-16.416 0-29.728-14.336-29.728-32s13.312-32 29.728-32H578.24c16.416 0 29.728 14.336 29.728 32s-13.312 32-29.728 32z m157.728 128h-256a32 32 0 0 1 0-64h256a32 32 0 0 1 0 64z m-384 0H288a32 32 0 0 1 0-64h64a32 32 0 0 1 0 64z m-23.296-343.36V256h53.024v286.976H315.84l-70.848-201.024v201.024H192V256h66.848l69.856 196.48zM457.6 256v109.824h67.616V256h57.792v286.976h-57.792v-127.424H457.6v127.424h-57.792V256H457.6z m213.44 162.816a15.584 15.584 0 0 0 15.84 8.32 20.864 20.864 0 0 0 10.56-2.272 15.84 15.84 0 0 0 6.016-6.048 25.12 25.12 0 0 0 2.752-9.28c0.224-3.68 0.224-7.36 0-11.072 0.32-3.84 0.32-7.68 0-11.552a27.904 27.904 0 0 0-3.264-9.536 18.336 18.336 0 0 0-7.04-6.816 25.12 25.12 0 0 0-12.064-2.496h-12.064v-23.616h11.84a18.336 18.336 0 0 0 9.792-2.528 18.848 18.848 0 0 0 6.272-6.272 29.888 29.888 0 0 0 3.52-8.8c0.384-3.52 0.384-7.04 0-10.56a29.408 29.408 0 0 0-4.288-18.08 15.84 15.84 0 0 0-13.056-5.28 18.592 18.592 0 0 0-9.28 2.016 14.56 14.56 0 0 0-5.536 6.016 26.624 26.624 0 0 0-2.784 9.056c-0.224 3.84-0.224 7.68 0 11.552h-33.152c-1.152-14.4 3.648-28.672 13.312-39.456a53.76 53.76 0 0 1 38.944-13.056c13.472-0.8 26.816 3.104 37.696 11.072 9.6 8.832 14.624 21.632 13.568 34.656a44.48 44.48 0 0 1-7.296 25.12 31.68 31.68 0 0 1-19.84 12.832c10.048 0.704 19.296 5.856 25.12 14.08 5.056 8.48 7.52 18.24 7.04 28.16 0 6.24-0.768 12.48-2.24 18.56-1.536 6.4-4.544 12.352-8.8 17.344a45.984 45.984 0 0 1-17.856 12.576c-9.632 3.52-19.872 5.12-30.144 4.768a50.24 50.24 0 0 1-38.72-14.08 57.28 57.28 0 0 1-12.8-39.936h34.688c-0.672 8.32 0.448 16.736 3.264 24.64z m158.816-61.632h-70.88v-29.664h70.88v29.664z m-108.608 159.936v22.4a50.24 50.24 0 0 1 20.352-20.864c8.8-4.48 18.56-6.72 28.416-6.56 13.28-0.864 26.368 3.776 36.16 12.8 9.472 11.776 13.984 26.72 12.576 41.728v141.984h-50.24v-132.16a32.928 32.928 0 0 0-5.056-20.864 19.84 19.84 0 0 0-16.064-5.76 25.12 25.12 0 0 0-25.12 31.648v127.136H672V517.12h49.248z"  p-id="8203"></path></svg>
