<?xml version="1.0" standalone="no"?><!DOCTYPE svg PUBLIC "-//W3C//DTD SVG 1.1//EN" "http://www.w3.org/Graphics/SVG/1.1/DTD/svg11.dtd"><svg t="1714658009088" class="icon" viewBox="0 0 1024 1024" version="1.1" xmlns="http://www.w3.org/2000/svg" p-id="10437" xmlns:xlink="http://www.w3.org/1999/xlink" width="200" height="200"><path d="M800 448a32 32 0 0 1-32 32h-65.152a444.256 444.256 0 0 1 0 64H768a32 32 0 0 1 0 64h-64a31.968 31.968 0 0 1-10.304-1.696c-5.312 23.36-12.512 45.44-21.44 65.696H768a32 32 0 0 1 32 32v64a32 32 0 0 1-64 0v-32h-96c-1.984 0-3.904-0.192-5.792-0.512C601.536 775.68 559.36 800 512 800s-89.536-24.32-122.208-64.512c-1.888 0.32-3.84 0.512-5.792 0.512H288v32a32 32 0 0 1-64 0v-64a32 32 0 0 1 32-32h95.712a363.136 363.136 0 0 1-21.408-65.696A31.968 31.968 0 0 1 320 608H256a32 32 0 0 1 0-64h65.152a444.256 444.256 0 0 1 0-64H256a32 32 0 0 1-32-32v-64a32 32 0 1 1 64 0v32h32c3.616 0 7.072 0.608 10.304 1.696 5.92-26.08 14.208-50.528 24.576-72.672a64 64 0 1 1 79.072-97.024C457.536 232.576 483.872 224 512 224c28.16 0 54.464 8.576 78.048 24a64 64 0 1 1 79.04 97.024c10.4 22.144 18.688 46.592 24.608 72.672A31.968 31.968 0 0 1 704 416h32v-32a32 32 0 0 1 64 0v64z m-410.528 0c-3.52 20.192-5.472 41.664-5.472 64 0 105.376 42.88 191.232 96 216.48V448h-90.528z m18.144-64h208.768C592.48 325.536 553.28 288 512 288s-80.48 37.536-104.384 96z m226.912 64H544v280.48c53.12-25.248 96-111.104 96-216.48 0-22.336-1.92-43.808-5.472-64z"  p-id="10438"></path></svg>
