<?xml version="1.0" standalone="no"?><!DOCTYPE svg PUBLIC "-//W3C//DTD SVG 1.1//EN" "http://www.w3.org/Graphics/SVG/1.1/DTD/svg11.dtd"><svg t="1714657876942" class="icon" viewBox="0 0 1024 1024" version="1.1" xmlns="http://www.w3.org/2000/svg" p-id="5818" xmlns:xlink="http://www.w3.org/1999/xlink" width="200" height="200"><path d="M309.696 355.136A254.72 254.72 0 0 0 257.984 480H320a32 32 0 1 1 0 64H257.984a254.72 254.72 0 0 0 51.712 124.864l19.584-19.584a32 32 0 0 1 45.12 45.12l-19.648 19.648A254.72 254.72 0 0 0 480 766.016V704a32 32 0 0 1 64 0v62.016a254.72 254.72 0 0 0 124.864-51.712l-19.584-19.584a32 32 0 0 1 45.12-45.12l19.648 19.648A254.72 254.72 0 0 0 766.016 544H704a32 32 0 0 1 0-64h62.016a254.72 254.72 0 0 0-51.968-125.248l-19.648 19.648a32 32 0 0 1-22.4 9.6 32 32 0 0 1-22.72-54.72l19.584-19.584A254.72 254.72 0 0 0 544 257.984V320a32 32 0 0 1-64 0V257.984a254.72 254.72 0 0 0-125.248 51.968l19.648 19.648A32 32 0 0 1 352 384a32 32 0 0 1-22.72-9.28l-19.584-19.584zM512 832c-176.736 0-320-143.264-320-320S335.264 192 512 192s320 143.264 320 320-143.264 320-320 320z m0-224a96 96 0 1 1 0-192 96 96 0 0 1 0 192z m0-128a32 32 0 1 0 0 64 32 32 0 0 0 0-64z" fill="#202425" p-id="5819"></path></svg>