<?xml version="1.0" standalone="no"?><!DOCTYPE svg PUBLIC "-//W3C//DTD SVG 1.1//EN" "http://www.w3.org/Graphics/SVG/1.1/DTD/svg11.dtd"><svg t="1714657967927" class="icon" viewBox="0 0 1024 1024" version="1.1" xmlns="http://www.w3.org/2000/svg" p-id="8947" xmlns:xlink="http://www.w3.org/1999/xlink" width="200" height="200"><path d="M288 608c0-41.792 26.72-77.344 64-90.56V256a32 32 0 0 1 32-32h192a32 32 0 0 1 0 64h-160v64h160a32 32 0 0 1 0 64h-160v101.44c37.28 13.216 64 48.768 64 90.56h320a32 32 0 0 1 0 64H224a32 32 0 0 1 0-64h64z m64 0h64a32 32 0 0 0-64 0z m448 192H224a32 32 0 0 1 0-64h576a32 32 0 0 1 0 64z"  p-id="8948"></path></svg>
