<?xml version="1.0" standalone="no"?><!DOCTYPE svg PUBLIC "-//W3C//DTD SVG 1.1//EN" "http://www.w3.org/Graphics/SVG/1.1/DTD/svg11.dtd"><svg t="1714657897715" class="icon" viewBox="0 0 1024 1024" version="1.1" xmlns="http://www.w3.org/2000/svg" p-id="6563" xmlns:xlink="http://www.w3.org/1999/xlink" width="200" height="200"><path d="M768 543.904h-32a32 32 0 0 1 0-64h32a32 32 0 0 1 0 64zM768 672h-32a32 32 0 0 1 0-64.032h32a32 32 0 0 1 0 64zM768 800h-96a32 32 0 0 1 0-64h96a32 32 0 0 1 0 64z m-224 0h-32a32 32 0 0 1 0-64h32a32 32 0 0 1 0 64z m-224 0H256a32 32 0 0 1 0-64h64a32 32 0 0 1 0 64z m107.2-101.472a54.72 54.72 0 0 1-38.72-16l-148.16-148.224a55.04 55.04 0 0 1 0-78.08l216-216.096a55.36 55.36 0 0 1 78.08 0l148.16 148.192a32 32 0 0 1-45.12 45.12l-142.08-142.08-203.52 203.584 135.68 135.712 86.72-89.632H416a32 32 0 0 1 0-64h173.44a32 32 0 0 1 23.04 54.4l-145.6 150.784a56 56 0 0 1-39.68 16.32z"  p-id="6564"></path></svg>
