<?xml version="1.0" standalone="no"?><!DOCTYPE svg PUBLIC "-//W3C//DTD SVG 1.1//EN" "http://www.w3.org/Graphics/SVG/1.1/DTD/svg11.dtd"><svg t="1714657829746" class="icon" viewBox="0 0 1024 1024" version="1.1" xmlns="http://www.w3.org/2000/svg" p-id="4179" xmlns:xlink="http://www.w3.org/1999/xlink" width="200" height="200"><path d="M800 800H224a32 32 0 0 1 0-64h576a32 32 0 0 1 0 64z m0-512H224a32 32 0 1 1 0-64h576a32 32 0 0 1 0 64z m-256 256h-64a32 32 0 1 1 0-64h64a32 32 0 0 1 0 64z m160-128H320l57.6 76.8a32 32 0 0 1 0 38.4L320 608h384l-57.6-76.8a32 32 0 0 1 0-38.4L704 416z m63.808-64a32.032 32.032 0 0 1 25.6 51.456L712 512l81.408 108.544a31.872 31.872 0 0 1 6.528 21.728A31.936 31.936 0 0 1 768 672H256a31.872 31.872 0 0 1-20.928-7.808 31.936 31.936 0 0 1-4.48-43.648L312 512l-81.408-108.544a31.872 31.872 0 0 1-6.496-21.76A32 32 0 0 1 256.192 352h511.616z"  p-id="4180"></path></svg>
