<?xml version="1.0" standalone="no"?><!DOCTYPE svg PUBLIC "-//W3C//DTD SVG 1.1//EN" "http://www.w3.org/Graphics/SVG/1.1/DTD/svg11.dtd"><svg t="1714657944644" class="icon" viewBox="0 0 1024 1024" version="1.1" xmlns="http://www.w3.org/2000/svg" p-id="8053" xmlns:xlink="http://www.w3.org/1999/xlink" width="200" height="200"><path d="M567.776 512H296.224a176 176 0 1 1 291.264-194.496 32 32 0 1 1-56.512 30.048 112 112 0 1 0-0.128 105.152 32 32 0 0 1 56.448 30.176c-5.568 10.432-12.128 20.16-19.52 29.12z m-21.504 128.64H221.76c-16.416 0-29.728-14.464-29.728-32.32S205.312 576 221.728 576H546.24c16.416 0 29.728 14.464 29.728 32.32s-13.312 32.32-29.728 32.32zM736 770.016h-256c-17.664 0-32-14.464-32-32.32s14.336-32.32 32-32.32h256c17.664 0 32 14.464 32 32.32s-14.336 32.32-32 32.32z m-384 0H288c-17.664 0-32-14.464-32-32.32s14.336-32.32 32-32.32h64c17.664 0 32 14.464 32 32.32s-14.336 32.32-32 32.32z m448-129.312h-128c-17.664 0-32-14.496-32-32.32 0-17.888 14.336-32.352 32-32.352h128c17.664 0 32 14.464 32 32.32s-14.336 32.32-32 32.32zM672 224a32 32 0 0 1 32 32v224a32 32 0 0 1-64 0V256a32 32 0 0 1 32-32z"  p-id="8054"></path></svg>
