<?xml version="1.0" standalone="no"?><!DOCTYPE svg PUBLIC "-//W3C//DTD SVG 1.1//EN" "http://www.w3.org/Graphics/SVG/1.1/DTD/svg11.dtd"><svg t="1714661112855" class="icon" viewBox="0 0 1024 1024" version="1.1" xmlns="http://www.w3.org/2000/svg" p-id="3185" xmlns:xlink="http://www.w3.org/1999/xlink" width="200" height="200"><path d="M119 609.8h786c31 0 56.1 25.1 56.1 56.1v280.7c0 31-25.1 56.1-56.1 56.1H119c-31 0-56.1-25.1-56.1-56.1V665.9c-0.1-31 25.1-56.1 56.1-56.1z m56.1 112.3v168.4h673.8V722.1H175.1z m78.3-610c-19.2-24.4-15-59.7 9.4-78.8 23.6-18.6 57.7-15.3 77.3 7.5 73 88.7 73 188 1 280.7-38.1 49-34.3 87.1 15.9 135.8 22.2 21.6 22.8 57.2 1.2 79.4s-57.2 22.8-79.4 1.2c-90.2-87.6-100.4-189.9-26.3-285.3 40.2-51.8 40.2-92.8 0.9-140.5z m224.6 0c-19.2-24.4-15-59.7 9.4-78.8 23.6-18.6 57.7-15.3 77.3 7.5 73 88.7 73 188 1 280.7-38.1 49-34.3 87.1 15.9 135.8 22.2 21.6 22.8 57.2 1.2 79.4s-57.2 22.8-79.4 1.2C413.2 450.3 403 348 477.1 252.6c40.2-51.8 40.2-92.8 0.9-140.5z m224.6 0c-19.2-24.4-15-59.7 9.4-78.8 23.6-18.6 57.7-15.3 77.3 7.5 73 88.7 73 188 1 280.7-38.1 49-34.3 87.1 15.9 135.8 22.2 21.6 22.8 57.2 1.2 79.4-21.6 22.2-57.2 22.8-79.4 1.2-90.2-87.6-100.4-189.9-26.3-285.3 40.2-51.8 40.2-92.8 0.9-140.5z" p-id="3186"></path></svg>