<?xml version="1.0" standalone="no"?><!DOCTYPE svg PUBLIC "-//W3C//DTD SVG 1.1//EN" "http://www.w3.org/Graphics/SVG/1.1/DTD/svg11.dtd"><svg t="1714657806648" class="icon" viewBox="0 0 1024 1024" version="1.1" xmlns="http://www.w3.org/2000/svg" p-id="3441" xmlns:xlink="http://www.w3.org/1999/xlink" width="200" height="200"><path d="M640 672c20.096-26.72 32-59.968 32-96 0-93.44-98.56-216.32-160-276.48-61.44 60.16-160 183.04-160 276.48 0 36.032 11.904 69.28 32 96 0-75.52 77.44-160 107.2-184a32 32 0 0 1 41.6 0c29.76 25.6 107.2 108.48 107.2 184z m-128 128a221.76 221.76 0 0 1-224-224c0-138.24 150.4-298.88 203.2-344.32a32 32 0 0 1 41.6 0C585.6 277.12 736 437.44 736 576a221.76 221.76 0 0 1-224 224z m0-242.88c-28.8 32-64 80.64-64 115.2a64 64 0 1 0 128 0c0-34.88-35.2-84.16-64-115.52v0.32z"  p-id="3442"></path></svg>
