<?xml version="1.0" standalone="no"?><!DOCTYPE svg PUBLIC "-//W3C//DTD SVG 1.1//EN" "http://www.w3.org/Graphics/SVG/1.1/DTD/svg11.dtd"><svg t="1714658033296" class="icon" viewBox="0 0 1024 1024" version="1.1" xmlns="http://www.w3.org/2000/svg" p-id="11480" xmlns:xlink="http://www.w3.org/1999/xlink" width="200" height="200"><path d="M736 448v-128H288v128h448z m0 64H288v32h448v-32zM256 256h512a32 32 0 0 1 32 32v288a32 32 0 0 1-32 32H256a32 32 0 0 1-32-32V288a32 32 0 0 1 32-32z m64 416a32 32 0 0 1 32 32v64a32 32 0 0 1-64 0v-64a32 32 0 0 1 32-32z m192 0a32 32 0 0 1 32 32v64a32 32 0 0 1-64 0v-64a32 32 0 0 1 32-32z m192 0a32 32 0 0 1 32 32v64a32 32 0 0 1-64 0v-64a32 32 0 0 1 32-32z m-160-320h96a32 32 0 0 1 0 64h-96a32 32 0 1 1 0-64z"  p-id="11481"></path></svg>
