<?xml version="1.0" standalone="no"?><!DOCTYPE svg PUBLIC "-//W3C//DTD SVG 1.1//EN" "http://www.w3.org/Graphics/SVG/1.1/DTD/svg11.dtd"><svg t="1714658045657" class="icon" viewBox="0 0 1024 1024" version="1.1" xmlns="http://www.w3.org/2000/svg" p-id="12076" xmlns:xlink="http://www.w3.org/1999/xlink" width="200" height="200"><path d="M236.8 640H169.6l-57.6-140.8V640h-64v-300.8h67.2L172.8 480v-140.8h64V640zM416 640h-64v-22.4c-3.2 9.6-9.6 12.8-16 16s-16 6.4-25.6 6.4c-9.6 0-16 0-25.6-3.2-6.4-3.2-12.8-6.4-16-12.8-3.2-6.4-6.4-12.8-6.4-19.2 0-6.4-3.2-12.8-3.2-22.4v-19.2c0-19.2 3.2-28.8 6.4-35.2 3.2-6.4 16-12.8 32-19.2l35.2-16c6.4-3.2 9.6-6.4 9.6-9.6 6.4-3.2 6.4-9.6 6.4-19.2 0-19.2-3.2-32-9.6-32-3.2 0-6.4 0-9.6 3.2-3.2 3.2-3.2 9.6-3.2 16v28.8h-64v-6.4c0-16 0-28.8 3.2-38.4 3.2-9.6 9.6-19.2 19.2-25.6 6.4-6.4 12.8-9.6 22.4-12.8s19.2-3.2 35.2-3.2c16 0 32 0 41.6 3.2 9.6 3.2 19.2 9.6 22.4 16 6.4 9.6 9.6 19.2 9.6 35.2v192z m-67.2-54.4v-64c-9.6 9.6-16 16-16 19.2-3.2 6.4-6.4 16-6.4 28.8v16c0 9.6 6.4 16 12.8 16s9.6-6.4 9.6-16zM633.6 640h-67.2l-57.6-140.8V640h-64v-300.8H512l57.6 140.8v-140.8h64V640zM844.8 515.2v57.6c0 9.6-3.2 19.2-6.4 28.8-6.4 12.8-16 25.6-32 32s-32 9.6-51.2 9.6c-19.2 0-38.4-3.2-51.2-9.6s-25.6-16-32-32c-3.2-6.4-6.4-16-6.4-28.8V464v-57.6c0-9.6 3.2-22.4 6.4-28.8 6.4-12.8 16-22.4 28.8-28.8 12.8-6.4 32-9.6 51.2-9.6 22.4 0 38.4 3.2 51.2 9.6s22.4 16 28.8 28.8c3.2 6.4 6.4 16 6.4 28.8V515.2zM768 566.4V416v-6.4c0-9.6 0-16-3.2-19.2s-3.2-6.4-9.6-6.4-9.6 0-9.6 6.4c0 3.2-3.2 12.8-3.2 25.6v153.6c0 6.4 0 12.8 3.2 19.2 0 3.2 3.2 6.4 9.6 6.4 6.4 0 12.8-9.6 12.8-28.8z"  p-id="12077"></path><path d="M960 508.8c0 9.6-3.2 19.2-6.4 28.8-3.2 9.6-9.6 19.2-16 32s-16 25.6-22.4 38.4h41.6v32h-86.4v-25.6c12.8-22.4 19.2-38.4 25.6-44.8 6.4-9.6 9.6-22.4 19.2-35.2 3.2-9.6 6.4-16 9.6-19.2 0-3.2 3.2-6.4 3.2-12.8 0-9.6-3.2-12.8-9.6-12.8-3.2 0-6.4 3.2-6.4 6.4s-3.2 6.4-3.2 12.8v16h-35.2v-3.2-9.6-9.6c3.2-12.8 6.4-22.4 12.8-25.6 6.4-6.4 16-9.6 28.8-9.6 6.4 0 12.8 0 16 3.2 3.2 0 9.6 3.2 12.8 6.4 9.6 3.2 16 16 16 32z"  p-id="12078"></path></svg>
