<?xml version="1.0" standalone="no"?><!DOCTYPE svg PUBLIC "-//W3C//DTD SVG 1.1//EN" "http://www.w3.org/Graphics/SVG/1.1/DTD/svg11.dtd"><svg t="1714658022003" class="icon" viewBox="0 0 1024 1024" version="1.1" xmlns="http://www.w3.org/2000/svg" p-id="11033" xmlns:xlink="http://www.w3.org/1999/xlink" width="200" height="200"><path d="M352.928 669.696l142.112-88.832a32 32 0 0 1 33.92 0l142.112 88.832c10.56-10.624 20.032-22.304 28.288-34.88L512 517.76l-187.36 117.12c8.256 12.544 17.728 24.224 28.288 34.848z m55.328 40.896A223.04 223.04 0 0 0 512 736a223.04 223.04 0 0 0 103.744-25.408L512 645.728l-103.744 64.864z m-110.848-134.208l197.632-123.52a32 32 0 0 1 33.92 0l197.632 123.52a224 224 0 1 0-429.216 0zM512 800a288 288 0 1 1 0-576 288 288 0 0 1 0 576z"  p-id="11034"></path></svg>
