<?xml version="1.0" standalone="no"?><!DOCTYPE svg PUBLIC "-//W3C//DTD SVG 1.1//EN" "http://www.w3.org/Graphics/SVG/1.1/DTD/svg11.dtd"><svg t="1714657980773" class="icon" viewBox="0 0 1024 1024" version="1.1" xmlns="http://www.w3.org/2000/svg" p-id="9394" xmlns:xlink="http://www.w3.org/1999/xlink" width="200" height="200"><path d="M736 544v-64h-96v64h96z m0 64h-96v64h96v-64z m0-192v-64h-96v64h96z m-160-64H288v320h288V352z m-128 160h64l-128 128 32-128h-64l128-128-32 128z m320 224H256a32 32 0 0 1-32-32V320a32 32 0 0 1 32-32h512a32 32 0 0 1 32 32v384a32 32 0 0 1-32 32z"  p-id="9395"></path></svg>
