<?xml version="1.0" standalone="no"?><!DOCTYPE svg PUBLIC "-//W3C//DTD SVG 1.1//EN" "http://www.w3.org/Graphics/SVG/1.1/DTD/svg11.dtd"><svg t="1714657963900" class="icon" viewBox="0 0 1024 1024" version="1.1" xmlns="http://www.w3.org/2000/svg" p-id="8798" xmlns:xlink="http://www.w3.org/1999/xlink" width="200" height="200"><path d="M800 667.84h-64a32 32 0 0 1 0-64h64a32 32 0 0 1 0 64z m-192 0H224a32 32 0 0 1 0-64h384a32 32 0 0 1 0 64z m128 128h-256a32 32 0 0 1 0-64h256a32 32 0 0 1 0 64z m-384 0H288a32 32 0 0 1 0-64h64a32 32 0 0 1 0 64z m160-256a32 32 0 0 1-32-32V352a64 64 0 1 0-128 0v155.84a32 32 0 1 1-64 0V352a128 128 0 1 1 256 0v155.84a32 32 0 0 1-32 32z m88.96 0c0-9.472 1.056-18.912 3.2-28.16a101.44 101.44 0 0 1 9.28-24.96 134.4 134.4 0 0 1 15.68-23.04 244.8 244.8 0 0 1 22.08-23.04l18.56-17.28a102.4 102.4 0 0 0 12.16-12.48c2.848-3.52 5.216-7.36 7.04-11.52a42.56 42.56 0 0 0 3.52-12.48c0.32-5.12 0.32-10.24 0-15.36a22.72 22.72 0 0 0-22.4-28.16 20.8 20.8 0 0 0-21.44 13.12 45.44 45.44 0 0 0-3.52 14.08v16.96h-44.16v-7.68a65.92 65.92 0 0 1 16.96-48.64 72.96 72.96 0 0 1 53.44-16.96 71.68 71.68 0 0 1 51.2 16 60.8 60.8 0 0 1 16.64 45.76 101.76 101.76 0 0 1-1.92 20.16 76.16 76.16 0 0 1-6.08 17.92 84.48 84.48 0 0 1-10.88 16.96 163.52 163.52 0 0 1-16.32 16.64l-25.6 23.68a96 96 0 0 0-16 17.92 53.12 53.12 0 0 0-7.36 15.36h85.44v35.2h-139.52z"  p-id="8799"></path></svg>
