<?xml version="1.0" standalone="no"?><!DOCTYPE svg PUBLIC "-//W3C//DTD SVG 1.1//EN" "http://www.w3.org/Graphics/SVG/1.1/DTD/svg11.dtd"><svg t="1714657917282" class="icon" viewBox="0 0 1024 1024" version="1.1" xmlns="http://www.w3.org/2000/svg" p-id="7010" xmlns:xlink="http://www.w3.org/1999/xlink" width="200" height="200"><path d="M192 326.976v355.52h71.68v-157.824h83.68v157.856h71.712V326.976h-71.68v135.936H263.68v-135.936H192z m428.768 120h71.68c0-12.928-0.896-26.816-2.72-41.6a109.568 109.568 0 0 0-13.696-41.28c-7.296-12.8-18.336-23.36-33.12-31.648-14.784-8.32-34.944-12.448-60.48-12.448-26.912 0-48.32 4.576-64.256 13.696-15.936 9.12-28.16 21.824-36.608 38.08-8.448 16.288-13.952 35.776-16.416 58.528a686.72 686.72 0 0 0-3.744 74.432c0 27.232 1.248 52.16 3.744 74.72 2.464 22.56 7.968 41.984 16.416 58.24a87.36 87.36 0 0 0 36.608 37.344c15.936 8.64 37.344 12.96 64.224 12.96 23.584 0 42.752-3.648 57.536-10.944a82.88 82.88 0 0 0 34.336-30.4c8.16-12.928 13.696-28.032 16.704-45.312 2.976-17.28 4.48-35.52 4.48-54.752h-71.712c0 19.232-1.152 34.752-3.52 46.56-2.304 11.776-5.44 20.896-9.44 27.36-3.968 6.496-8.704 10.816-14.176 12.96a47.808 47.808 0 0 1-17.696 3.232 41.6 41.6 0 0 1-20.16-4.736c-5.792-3.136-10.624-9.28-14.432-18.4-3.84-9.152-6.656-22.016-8.48-38.592a621.664 621.664 0 0 1-2.72-65.248c0-25.216 0.64-46.56 1.984-64 1.312-17.408 3.648-31.52 6.976-42.304 3.328-10.816 7.872-18.592 13.696-23.424 5.792-4.8 13.184-7.2 22.144-7.2 16.288 0 27.488 5.888 33.6 17.664 6.176 11.776 9.248 30.624 9.248 56.512z m116-120v355.52h68.736v-355.52h-68.736z" p-id="7011"></path></svg>
