<?xml version="1.0" standalone="no"?><!DOCTYPE svg PUBLIC "-//W3C//DTD SVG 1.1//EN" "http://www.w3.org/Graphics/SVG/1.1/DTD/svg11.dtd"><svg t="1714657834338" class="icon" viewBox="0 0 1024 1024" version="1.1" xmlns="http://www.w3.org/2000/svg" p-id="4328" xmlns:xlink="http://www.w3.org/1999/xlink" width="200" height="200"><path d="M224.192 557.12a26.88 26.88 0 0 1-12.16-2.56 32 32 0 0 1-10.56-6.72 32 32 0 0 1 0-45.44 32 32 0 0 1 10.56-6.72 29.44 29.44 0 0 1 24.32 0c3.84 1.6 7.424 3.904 10.56 6.72a32 32 0 0 1 0 45.44 37.44 37.44 0 0 1-10.56 6.72 26.88 26.88 0 0 1-12.16 2.56z m32-128h-32a32 32 0 0 1 0-64h32a32 32 0 1 1 0 64z m32-128h-64a32 32 0 0 1 0-64h64a32 32 0 1 1 0 64z m-64 384a32 32 0 0 1-12.16-2.56 32 32 0 0 1-10.56-6.72 32 32 0 1 1 45.44 0 37.44 37.44 0 0 1-10.56 6.72 32 32 0 0 1-12.16 2.56z m32 128h-32a32 32 0 0 1 0-64h32a32 32 0 1 1 0 64z m544-256h-6.4l-5.76-1.92a24.32 24.32 0 0 1-5.76-2.88l-4.8-3.84a32 32 0 1 1 45.44 0l-4.8 3.84a24.32 24.32 0 0 1-5.76 2.88 19.84 19.84 0 0 1-6.08 1.92h-6.08z m0-128h-32a32 32 0 0 1 0-64h32a32 32 0 1 1 0 64z m0-128h-64a32 32 0 0 1 0-64h64a32 32 0 1 1 0 64z m0 384a33.6 33.6 0 0 1-22.72-9.28 36.8 36.8 0 0 1-6.72-10.56 26.56 26.56 0 0 1-2.56-12.16 32 32 0 1 1 64 0 32 32 0 0 1-2.56 12.16 36.8 36.8 0 0 1-6.72 10.56 33.6 33.6 0 0 1-22.72 9.28z m0 128h-32a32 32 0 0 1 0-64h32a32 32 0 1 1 0 64z m-288-114.88a32 32 0 0 1 0-64 32 32 0 0 0 32-32 32 32 0 1 1 64 0 96 96 0 0 1-96 96z m-0.64-390.72c32 40.96 74.56 94.08 109.12 138.56l2.24 3.2c75.2 96 55.04 198.08 4.48 250.56a158.08 158.08 0 0 1-229.44 0c-72-74.88-49.6-179.84 4.8-250.88l23.68-32c28.16-36.8 58.88-77.44 85.12-110.4v0.96z m0-83.2a32 32 0 0 0-24.96 11.84c-37.44 44.48-92.8 118.08-134.4 172.8-81.28 106.56-88.32 242.24 0 334.08a222.08 222.08 0 0 0 321.6 0c88.32-91.84 78.72-232.64 0-334.08-43.84-56.32-100.16-128-137.28-173.12a32 32 0 0 0-24.96-11.84v0.32z"  p-id="4329"></path></svg>
