<?xml version="1.0" standalone="no"?><!DOCTYPE svg PUBLIC "-//W3C//DTD SVG 1.1//EN" "http://www.w3.org/Graphics/SVG/1.1/DTD/svg11.dtd"><svg t="1710397346117" class="icon" viewBox="0 0 1024 1024" version="1.1" xmlns="http://www.w3.org/2000/svg" p-id="1519" xmlns:xlink="http://www.w3.org/1999/xlink" width="200" height="200"><path d="M918.390348 865.923754a2346.95226 2346.95226 0 0 0 29.439301-347.511746l12.159711-5.119879c-5.759863-39.679058-9.919764-74.558229-14.079665-107.517446a2054.351209 2054.351209 0 0 0-26.55937-250.234057l22.079476-33.599202a64.574466 64.574466 0 0 0-7.99981-86.397948l-16.959597-15.359635a79.422114 79.422114 0 0 0-95.677728-7.679818l-33.919194 18.879552a1606.777839 1606.777839 0 0 0-547.826989 0L202.247357 11.544046a79.454113 79.454113 0 0 0-93.117789 7.99981l-17.919574 15.99962a65.310449 65.310449 0 0 0-8.319803 86.397948l22.399468 33.919194A1975.729076 1975.729076 0 0 0 75.850359 480.01292l-12.159712 4.479893c5.439871 40.319042 9.919764 78.398138 14.079666 115.197264a2349.320204 2349.320204 0 0 0 28.159331 267.193655l-23.039453 35.199164a64.894459 64.894459 0 0 0 8.319803 86.077955l17.599582 16.319613a78.846127 78.846127 0 0 0 93.437781 7.679817l36.159141-19.839529A1292.097313 1292.097313 0 0 0 784.313533 992.00076l38.399088 20.479514a79.422114 79.422114 0 0 0 92.797796-7.99981l17.919574-16.319613a64.86246 64.86246 0 0 0 8.319802-85.757963z m-25.599392 84.477994l-17.599582 16.319612a19.679533 19.679533 0 0 1-23.359445-0.319992l-41.599012-22.399468a35.903147 35.903147 0 0 0-29.119308-6.079856 1230.72277 1230.72277 0 0 1-543.347096-0.639984 23.327446 23.327446 0 0 0-20.159521 4.479893l-44.798936 24.639415a19.679533 19.679533 0 0 1-23.359445 0.319992l-17.599582-16.319612a15.711627 15.711627 0 0 1 0.319992-21.119498l27.199354-41.599012a27.679343 27.679343 0 0 0 5.439871-17.919575c-1.599962-8.639795-2.879932-17.27959-4.159901-25.919384l729.26268-301.432841a2280.521838 2280.521838 0 0 1-29.439301 322.872332 28.095333 28.095333 0 0 0 5.759863 23.359445l25.919384 40.639035a15.743626 15.743626 0 0 1 0.639985 21.119498zM305.924894 450.573619l41.599012-10.879742a258.777854 258.777854 0 0 1 3.839909 26.879362l97.27769-37.439111 23.039453 55.678678-36.799126 14.079665-9.599772-23.359445-71.678298 27.519347v2.879931a189.435501 189.435501 0 0 0 55.038693 54.398708c14.399658-23.359445 25.919384-43.198974 33.919194-59.198594l39.359065 20.159521c-6.079856 7.99981-20.159521 26.239377-42.558989 55.038693a236.410385 236.410385 0 0 0 90.237857 15.359635c-1.599962 8.639795-4.479894 23.679438-8.959787 45.118929a252.793996 252.793996 0 0 1-171.835919-84.477994c-1.919954 9.919764-4.479894 20.159521-7.039833 30.399278l30.399278 73.27826c22.399468-17.919574 38.399088-31.039263 47.99886-39.679058 6.079856 17.599582 10.879742 30.71927 14.079666 39.359065a849.963813 849.963813 0 0 0-75.518207 61.118549l-28.799316-25.2794a46.398898 46.398898 0 0 0-0.959977-41.599012l-7.039833-16.639605a438.133594 438.133594 0 0 1-29.439301 51.198784 407.958311 407.958311 0 0 0-34.879171-27.199354 242.394243 242.394243 0 0 0 55.358685-138.556709l-44.798936 17.27959 14.71965 35.519156-36.799126 13.759673-28.159331-67.198404 93.437781-36.159141a222.138724 222.138724 0 0 0-5.439871-31.359255z m248.314103-96.637705l36.799126-11.519726-0.959977 17.919574 120.637135-46.71889 9.599772 23.99943-4.479894 36.799126-31.039263 0.959977 1.27997-19.519537-37.759104 14.719651a85.117978 85.117978 0 0 1 0.959978 8.959787 117.693205 117.693205 0 0 0 99.197644 5.759863c-1.27997 14.399658-1.919954 26.559369-2.239947 36.479134a120.509138 120.509138 0 0 1-97.917675-8.959787 105.885485 105.885485 0 0 1-54.078715 66.558419l136.956747-53.118739 29.439301 70.398329-35.839149 14.079665-16.959597-40.639035-123.517067 47.678868 17.919575 43.198974-36.159141 13.759673-30.399278-72.958267 47.038882-18.239567-26.879361-20.159521c44.798936-23.99943 64.638465-50.558799 58.878601-79.9981l-28.799316 11.199734a322.040352 322.040352 0 0 1-8.319802 34.559179c-9.599772-2.239947-21.439491-4.159901-35.839149-6.079856a171.77192 171.77192 0 0 0 12.479704-69.118358z m78.398138 153.596352l37.759103-14.71965a153.596352 153.596352 0 0 1 4.159901 30.399278c31.359255-3.839909 71.358305-7.679818 119.357166-11.199734l-4.159902 38.71908q-39.839054 0.959977-120.957127 5.759863c-9.27978 25.599392-40.319042 51.198784-92.797796 77.118169-8.319802-7.679818-18.879552-16.959597-31.679248-27.519347a280.82533 280.82533 0 0 0 73.27826-43.518966 49.054835 49.054835 0 0 0 15.039643-55.038693z m-69.758343-57.598632c-17.919574 22.71946-31.99924 42.238997-43.518967 58.238617l-29.119308-27.839339c16.959597-19.199544 31.679248-38.079096 44.798936-55.99867z m-41.599012-18.239567a389.04676 389.04676 0 0 0-51.518777-14.71965l10.559749-33.599202c22.71946 4.159901 40.319042 8.319802 52.478754 11.519726z m371.191184-337.27199l-27.839339 41.919005a18.911551 18.911551 0 0 0-4.159901 15.039643c1.599962 9.919764 3.519916 19.839529 4.799886 29.439301L133.448991 458.253436a1939.665933 1939.665933 0 0 1 30.71927-305.912734 20.831505 20.831505 0 0 0-5.119878-16.959597l-26.879362-41.27902a15.99962 15.99962 0 0 1-0.319992-21.439491l17.919574-15.99962a19.711532 19.711532 0 0 1 23.039453 0.319993l41.919004 22.71946a30.111285 30.111285 0 0 0 24.319423 5.439871 1551.611149 1551.611149 0 0 1 550.386928 0.639985 20.63951 20.63951 0 0 0 17.27959-3.519917l43.838958-24.639415a20.22352 20.22352 0 0 1 25.2794 0l16.959597 15.359636a15.99962 15.99962 0 0 1-0.319992 21.43949z m-74.878222 492.148312q-5.759863 87.837914-18.239567 175.675828c-9.919764 72.318282-14.71965 83.838009-93.43778 102.71756a1110.373629 1110.373629 0 0 1-487.668418 9.27978 35.455158 35.455158 0 0 0 31.99924 44.158951 1207.747316 1207.747316 0 0 0 525.427521-0.639985 72.670274 72.670274 0 0 0 61.758533-55.358685 2347.624244 2347.624244 0 0 0 28.479324-287.673168z m0 0"  p-id="1520"></path></svg>