<svg xmlns="http://www.w3.org/2000/svg" viewBox="0 0 40 40">
  <defs>
    <style>
      .cls-1{fill:none;}.cls-2{opacity:0.2;isolation:isolate;}.cls-3{fill:#42c678;}.cls-4{fill:#f7f7f7;}.cls-5{fill:#fff;}
    </style>
  </defs>
  <g id="图层_2" data-name="图层 2">
    <g id="图层_1-2" data-name="图层 1">
      <rect class="cls-1" width="40" height="40"/>
      <ellipse id="椭圆_169" data-name="椭圆 169" class="cls-2" cx="20" cy="38.02" rx="3.95" ry="1.59"/>
      <path class="cls-3"
            d="M31.2,4.66A16.82,16.82,0,1,0,10.88,31.35c1.1.71,2.76,1.48,4.16,2.35l4.22,4.22a1,1,0,0,0,1.49,0L24.57,34a32,32,0,0,1,4.33-2.51A16.8,16.8,0,0,0,31.2,4.66Z"/>
      <path class="cls-4"
            d="M20,2.3a14.91,14.91,0,0,1,7.93,27.56c-.34.21-.8.44-1.29.68a16,16,0,0,0-3.28,2l-.06.06-.06.06L20,36l-3.61-3.6-.15-.16-.18-.11c-.76-.48-1.55-.9-2.32-1.31s-1.34-.72-1.82-1A14.91,14.91,0,0,1,18.26,2.4,13.73,13.73,0,0,1,20,2.3M20,.39A15.45,15.45,0,0,0,18,.5a16.82,16.82,0,0,0-7.16,30.85c1.1.71,2.76,1.48,4.16,2.35l4.22,4.22a1,1,0,0,0,.72.33,1.21,1.21,0,0,0,.77-.33L24.57,34a32,32,0,0,1,4.33-2.51A16.82,16.82,0,0,0,20,.39Z"/>
      <g id="组_18300" data-name="组 18300">
        <path id="路径_10672" data-name="路径 10672" class="cls-5"
              d="M16.4,20.19a.69.69,0,0,0,0,1.38.74.74,0,0,0,.69-.69A.7.7,0,0,0,16.4,20.19Z"/>
        <path id="路径_10673" data-name="路径 10673" class="cls-5"
              d="M23.53,20.19a.69.69,0,1,0,0,1.38.66.66,0,0,0,.69-.64v-.05A.69.69,0,0,0,23.53,20.19Z"/>
        <path id="路径_10674" data-name="路径 10674" class="cls-5"
              d="M25.66,16.57H23.53V9.78a.69.69,0,0,0-1.38,0v6.79H17.66V9.78a.55.55,0,0,0,0-.18.64.64,0,0,0-1.24.08v6.89H14.27a2.35,2.35,0,0,0-2.35,2.36v4a2.32,2.32,0,0,0,2.34,2.31H25.73a2.35,2.35,0,0,0,2.35-2.35v-4A2.39,2.39,0,0,0,25.66,16.57ZM16.4,22.49a1.55,1.55,0,1,1,0-3.1h0A1.57,1.57,0,0,1,18,20.94a1.55,1.55,0,0,1-1.54,1.55Zm7.13,0a1.55,1.55,0,1,1,1.56-1.55h0a1.55,1.55,0,0,1-1.55,1.55Z"/>
      </g>
    </g>
  </g>
</svg>
