<svg xmlns="http://www.w3.org/2000/svg" viewBox="0 0 40 40">
  <defs>
    <style>
      .cls-1{fill:none;}.cls-2{opacity:0.2;isolation:isolate;}.cls-3{fill:#f9b341;}.cls-4{fill:#f7f7f7;}.cls-5{fill:#fff;}
    </style>
  </defs>
  <g id="图层_2" data-name="图层 2">
    <g id="图层_1-2" data-name="图层 1">
      <rect class="cls-1" width="40" height="40"/>
      <ellipse id="椭圆_169" data-name="椭圆 169" class="cls-2" cx="20" cy="38.02" rx="3.95" ry="1.59"/>
      <path class="cls-3"
            d="M31.2,4.66A16.82,16.82,0,1,0,10.88,31.35c1.1.71,2.76,1.48,4.16,2.35l4.22,4.22a1,1,0,0,0,1.49,0L24.57,34a32,32,0,0,1,4.33-2.51A16.8,16.8,0,0,0,31.2,4.66Z"/>
      <path class="cls-4"
            d="M20,2.3a14.91,14.91,0,0,1,7.93,27.56c-.34.21-.8.44-1.29.68a16,16,0,0,0-3.28,2l-.06.06-.06.06L20,36l-3.61-3.6-.15-.16-.18-.11c-.76-.48-1.55-.9-2.32-1.31s-1.34-.72-1.82-1A14.91,14.91,0,0,1,18.26,2.4,13.73,13.73,0,0,1,20,2.3M20,.39A15.45,15.45,0,0,0,18,.5a16.82,16.82,0,0,0-7.16,30.85c1.1.71,2.76,1.48,4.16,2.35l4.22,4.22a1,1,0,0,0,.72.33,1.21,1.21,0,0,0,.77-.33L24.57,34a32,32,0,0,1,4.33-2.51A16.82,16.82,0,0,0,20,.39Z"/>
      <g id="组_18298" data-name="组 18298">
        <path id="路径_10670" data-name="路径 10670" class="cls-5"
              d="M20,9.07a3.37,3.37,0,0,1,3.37,3.37H16.67A3.36,3.36,0,0,1,20,9.07Z"/>
        <path id="路径_10671" data-name="路径 10671" class="cls-5"
              d="M28.51,19.74h-3V21h0a5.62,5.62,0,0,1-.74,2.29l2.14,2.13a.42.42,0,0,1-.6.6h0l-2-2A5.46,5.46,0,0,1,20.88,26V16a.85.85,0,0,0-.81-.88.84.84,0,0,0-.88.81V26a5.48,5.48,0,0,1-3.44-2L13.67,26a.42.42,0,0,1-.7-.41.45.45,0,0,1,.11-.19l2.19-2.19a5.45,5.45,0,0,1-.7-2.23h0V19.74H11.48a.42.42,0,0,1-.42-.42.42.42,0,0,1,.42-.42h3.07V15.21l-2.16-2.16a.41.41,0,0,1,0-.59.43.43,0,0,1,.56,0l1.85,1.85H25.22l1.85-1.85a.42.42,0,1,1,.59.59L25.5,15.22V18.9h3a.42.42,0,0,1,.42.42.42.42,0,0,1-.42.42Z"/>
      </g>
    </g>
  </g>
</svg>
