<svg xmlns="http://www.w3.org/2000/svg" viewBox="0 0 40 40">
  <defs>
    <style>
      .cls-1{fill:none;}.cls-2{opacity:0.2;isolation:isolate;}.cls-3{fill:#f46969;}.cls-4{fill:#f7f7f7;}.cls-5{fill:#fff;}
    </style>
  </defs>
  <g id="图层_2" data-name="图层 2">
    <g id="图层_1-2" data-name="图层 1">
      <rect class="cls-1" width="40" height="40"/>
      <ellipse id="椭圆_169" data-name="椭圆 169" class="cls-2" cx="20" cy="38.02" rx="3.95" ry="1.59"/>
      <path class="cls-3"
            d="M31.2,4.66A16.82,16.82,0,1,0,10.88,31.35c1.1.71,2.76,1.48,4.16,2.35l4.22,4.22a1,1,0,0,0,1.49,0L24.57,34a32,32,0,0,1,4.33-2.51A16.8,16.8,0,0,0,31.2,4.66Z"/>
      <path class="cls-4"
            d="M20,2.3a14.91,14.91,0,0,1,7.93,27.56c-.34.21-.8.44-1.29.68a16,16,0,0,0-3.28,2l-.06.06-.06.06L20,36l-3.61-3.6-.15-.16-.18-.11c-.76-.48-1.55-.9-2.32-1.31s-1.34-.72-1.82-1A14.91,14.91,0,0,1,18.26,2.4,13.73,13.73,0,0,1,20,2.3M20,.39A15.45,15.45,0,0,0,18,.5a16.82,16.82,0,0,0-7.16,30.85c1.1.71,2.76,1.48,4.16,2.35l4.22,4.22a1,1,0,0,0,.72.33,1.21,1.21,0,0,0,.77-.33L24.57,34a32,32,0,0,1,4.33-2.51A16.82,16.82,0,0,0,20,.39Z"/>
      <polygon class="cls-5"
               points="15.37 20.19 15.37 17.8 13.62 17.44 13.62 25.12 15.37 24.49 15.37 21.82 18.21 21.82 19.77 19.63 17.75 18.51 17.21 20.2 15.37 20.19"/>
      <polygon class="cls-5"
               points="30.64 17.79 17.7 9 16.21 9 14.16 12.34 14.16 13.47 25.53 20.63 26.48 20.63 26.48 20.55 30.64 17.8 30.64 17.79"/>
      <path class="cls-5"
            d="M15.18,14.63l-1,1.15,11.29,7.29h1l.54-.58.54-1.66S26.07,22,26,22a7.37,7.37,0,0,0-1.08-.65Z"/>
    </g>
  </g>
</svg>
