<svg xmlns="http://www.w3.org/2000/svg" viewBox="0 0 40 40">
  <defs>
    <style>
      .cls-1{fill:none;}.cls-2{opacity:0.2;isolation:isolate;}.cls-3{fill:#37cab9;}.cls-4{fill:#f7f7f7;}.cls-5{fill:#fff;}
    </style>
  </defs>
  <g id="图层_2" data-name="图层 2">
    <g id="图层_1-2" data-name="图层 1">
      <rect class="cls-1" width="40" height="40"/>
      <ellipse id="椭圆_169" data-name="椭圆 169" class="cls-2" cx="20" cy="38.02" rx="3.95" ry="1.59"/>
      <path class="cls-3"
            d="M31.2,4.66A16.82,16.82,0,1,0,10.88,31.35c1.1.71,2.76,1.48,4.16,2.35l4.22,4.22a1,1,0,0,0,1.49,0L24.57,34a32,32,0,0,1,4.33-2.51A16.8,16.8,0,0,0,31.2,4.66Z"/>
      <path class="cls-4"
            d="M20,2.3a14.91,14.91,0,0,1,7.93,27.56c-.34.21-.8.44-1.29.68a16,16,0,0,0-3.28,2l-.06.06-.06.06L20,36l-3.61-3.6-.15-.16-.18-.11c-.76-.48-1.55-.9-2.32-1.31s-1.34-.72-1.82-1A14.91,14.91,0,0,1,18.26,2.4,13.73,13.73,0,0,1,20,2.3M20,.39A15.45,15.45,0,0,0,18,.5a16.82,16.82,0,0,0-7.16,30.85c1.1.71,2.76,1.48,4.16,2.35l4.22,4.22a1,1,0,0,0,.72.33,1.21,1.21,0,0,0,.77-.33L24.57,34a32,32,0,0,1,4.33-2.51A16.82,16.82,0,0,0,20,.39Z"/>
      <g id="组_3191" data-name="组 3191">
        <path id="路径_3398" data-name="路径 3398" class="cls-5"
              d="M18.4,17.26a.26.26,0,0,0-.26.26h0a.26.26,0,0,0,.26.26h0a.26.26,0,0,0,.24-.28A.27.27,0,0,0,18.4,17.26Z"/>
        <path id="路径_723" data-name="路径 723" class="cls-5"
              d="M15.25,12.65v-.8h.53v.8h8.8V10.52H23V11l-1.33.59L22,10.4l-.38-1.21,1.33.6v.46h3.47V9.72l1.07.67-1.07.66v-.53H25.12v2.14"/>
        <path id="路径_724" data-name="路径 724" class="cls-5" d="M14.58,10.79h1.6v.8h-1.6Z"/>
        <path id="路径_3399" data-name="路径 3399" class="cls-5"
              d="M17.15,11a.92.92,0,0,1-.82-.51h-.82a1.17,1.17,0,0,1-.59.26.74.74,0,0,1,0-.26h-.43a.93.93,0,0,1-1.67-.8l0,0h0a.92.92,0,0,1,1.24-.41.93.93,0,0,1,.5.7h.34a2,2,0,0,1,0-.49.69.69,0,0,1,.74.49h.57a.92.92,0,0,1,1-.8h0a.92.92,0,0,1,.8,1h0a.9.9,0,0,1-.92.8Z"/>
        <rect id="矩形_560" data-name="矩形 560" class="cls-5" x="19.32" y="14.84" width="1.35" height="1.35"/>
        <rect id="矩形_561" data-name="矩形 561" class="cls-5" x="19.33" y="22.27" width="1.35" height="5.21"/>
        <rect id="矩形_562" data-name="矩形 562" class="cls-5" x="11.41" y="12.59" width="17.18" height="1.59" rx="0.74"/>
        <path id="路径_3400" data-name="路径 3400" class="cls-5"
              d="M19.39,16.72h-4a.5.5,0,0,0-.49.5h0v3.85a.49.49,0,0,0,.49.5h9.48a.5.5,0,0,0,.5-.5V17.23a.5.5,0,0,0-.5-.5H19.39Zm-1,1.36h0a.52.52,0,0,1,0-1h0a.52.52,0,0,1,.52.52h0A.52.52,0,0,1,18.4,18.08Zm2.16,3h0a1.84,1.84,0,0,1-1.7-2h0a1.84,1.84,0,0,1,1.7-1.7,1.7,1.7,0,0,1,1.54,1h-.6a1.15,1.15,0,0,0-.94-.52,1.31,1.31,0,0,0-1.17,1.44h0a1.31,1.31,0,0,0,1.17,1.17,1.2,1.2,0,0,0,1.08-.79h.55a1.72,1.72,0,0,1-1.63,1.31Z"/>
      </g>
    </g>
  </g>
</svg>
