<svg xmlns="http://www.w3.org/2000/svg" viewBox="0 0 40 40">
  <defs>
    <style>
      .cls-1{fill:none;}.cls-2{opacity:0.2;isolation:isolate;}.cls-3{fill:#f49758;}.cls-4{fill:#f7f7f7;}.cls-5{fill:#fff;}
    </style>
  </defs>
  <g id="图层_2" data-name="图层 2">
    <g id="图层_1-2" data-name="图层 1">
      <rect class="cls-1" width="40" height="40"/>
      <ellipse id="椭圆_169" data-name="椭圆 169" class="cls-2" cx="20" cy="38.02" rx="3.95" ry="1.59"/>
      <path class="cls-3"
            d="M31.2,4.66A16.82,16.82,0,1,0,10.88,31.35c1.1.71,2.76,1.48,4.16,2.35l4.22,4.22a1,1,0,0,0,1.49,0L24.57,34a32,32,0,0,1,4.33-2.51A16.8,16.8,0,0,0,31.2,4.66Z"/>
      <path class="cls-4"
            d="M20,2.3a14.91,14.91,0,0,1,7.93,27.56c-.34.21-.8.44-1.29.68a16,16,0,0,0-3.28,2l-.06.06-.06.06L20,36l-3.61-3.6-.15-.16-.18-.11c-.76-.48-1.55-.9-2.32-1.31s-1.34-.72-1.82-1A14.91,14.91,0,0,1,18.26,2.4,13.73,13.73,0,0,1,20,2.3M20,.39A15.45,15.45,0,0,0,18,.5a16.82,16.82,0,0,0-7.16,30.85c1.1.71,2.76,1.48,4.16,2.35l4.22,4.22a1,1,0,0,0,.72.33,1.21,1.21,0,0,0,.77-.33L24.57,34a32,32,0,0,1,4.33-2.51A16.82,16.82,0,0,0,20,.39Z"/>
      <path class="cls-5"
            d="M20.44,9.45a.85.85,0,0,1,0,1.7,6.81,6.81,0,0,0-6.75,6l.17,0a1.26,1.26,0,0,1,1.3.85h1a2.21,2.21,0,0,1,3.44,0H21c.31-.71.72-1.07,1.23-1.07A1.55,1.55,0,0,1,23.64,18h.67c.61-1.13,1.31-1.7,2.1-1.7s1.48.57,2,1.7H29a8.51,8.51,0,1,1-8.51-8.51Zm-4.25,6.81a.84.84,0,0,1-.74-.43.86.86,0,0,1,0-.85.85.85,0,1,1,.74,1.28Zm6.38,0a.44.44,0,0,1-.37-.21.47.47,0,0,1,0-.43.44.44,0,0,1,.37-.21.43.43,0,1,1,0,.85ZM20,17.11a.44.44,0,0,1-.37-.21.42.42,0,0,1,0-.43.44.44,0,0,1,.37-.21.43.43,0,0,1,0,.85Zm-.85-2.55a1.28,1.28,0,1,1,1.27-1.28,1.28,1.28,0,0,1-1.27,1.28Z"/>
      <rect class="cls-1" x="11.95" y="9.46" width="17" height="17.02"/>
    </g>
  </g>
</svg>
