<svg xmlns="http://www.w3.org/2000/svg" viewBox="0 0 40 40">
  <defs>
    <style>
      .cls-1{fill:none;}.cls-2{opacity:0.2;isolation:isolate;}.cls-3{fill:#abc445;}.cls-4{fill:#f7f7f7;}.cls-5{fill:#fff;}
    </style>
  </defs>
  <g id="图层_2" data-name="图层 2">
    <g id="图层_1-2" data-name="图层 1">
      <rect class="cls-1" width="40" height="40"/>
      <ellipse id="椭圆_169" data-name="椭圆 169" class="cls-2" cx="20" cy="38.02" rx="3.95" ry="1.59"/>
      <path class="cls-3"
            d="M31.2,4.66A16.82,16.82,0,1,0,10.88,31.35c1.1.71,2.76,1.48,4.16,2.35l4.22,4.22a1,1,0,0,0,1.49,0L24.57,34a32,32,0,0,1,4.33-2.51A16.8,16.8,0,0,0,31.2,4.66Z"/>
      <path class="cls-4"
            d="M20,2.3a14.91,14.91,0,0,1,7.93,27.56c-.34.21-.8.44-1.29.68a16,16,0,0,0-3.28,2l-.06.06-.06.06L20,36l-3.61-3.6-.15-.16-.18-.11c-.76-.48-1.55-.9-2.32-1.31s-1.34-.72-1.82-1A14.91,14.91,0,0,1,18.26,2.4,13.73,13.73,0,0,1,20,2.3M20,.39A15.45,15.45,0,0,0,18,.5a16.82,16.82,0,0,0-7.16,30.85c1.1.71,2.76,1.48,4.16,2.35l4.22,4.22a1,1,0,0,0,.72.33,1.21,1.21,0,0,0,.77-.33L24.57,34a32,32,0,0,1,4.33-2.51A16.82,16.82,0,0,0,20,.39Z"/>
      <g id="组_3204" data-name="组 3204">
        <path id="路径_3421" data-name="路径 3421" class="cls-5"
              d="M12.43,21.15a.67.67,0,0,0,.68-.68h0v-2a.68.68,0,0,0-.71-.65.69.69,0,0,0-.65.65v2a.69.69,0,0,0,.67.69Z"/>
        <path id="路径_3422" data-name="路径 3422" class="cls-5"
              d="M21.17,16.07h0a1.48,1.48,0,0,0,0-3h0a1.48,1.48,0,1,0-.08,3Z"/>
        <path id="路径_3423" data-name="路径 3423" class="cls-5"
              d="M27.42,23.88h-.81V10.28a1.86,1.86,0,0,0-1.82-1.83H17.46a1.88,1.88,0,0,0-1.73,1.93v1.9h-3.3a.68.68,0,0,0-.68.68h0v2a.68.68,0,0,0,.72.65.67.67,0,0,0,.64-.65V13.64h2.61V23.88h-4a.68.68,0,1,0,0,1.36H27.41a.68.68,0,0,0,.68-.68h0a.7.7,0,0,0-.68-.68h0ZM21.17,12h0a2.58,2.58,0,0,1,2.58,2.59h0a2.59,2.59,0,0,1-2.58,2.58h0a2.58,2.58,0,0,1-2.58-2.59h0A2.58,2.58,0,0,1,21.17,12Zm2,11.42H19.13a.68.68,0,0,1,0-1.36h4.08a.67.67,0,0,1,.68.68h0a.67.67,0,0,1-.68.68Z"/>
      </g>
    </g>
  </g>
</svg>
